<?xml version="1.0" standalone="no"?>
<!DOCTYPE svg PUBLIC "-//W3C//DTD SVG 1.1//EN" "http://www.w3.org/Graphics/SVG/1.1/DTD/svg11.dtd" >
<svg xmlns="http://www.w3.org/2000/svg" xmlns:xlink="http://www.w3.org/1999/xlink" version="1.1">
<metadata>
Created by FontForge 20161003 at Mon Feb 18 09:58:44 2019
 By www-data
Copyright (c) 2006 by Radim Pesko. All rights reserved.
</metadata>
<defs>
<font id="union_regular_italic" horiz-adv-x="556" >
  <font-face 
    font-family="union_regular_italic"
    font-weight="400"
    font-stretch="normal"
    units-per-em="1000"
    panose-1="2 0 0 0 0 0 0 0 0 0"
    ascent="750"
    descent="-250"
    x-height="518"
    cap-height="715"
    bbox="-124 -239 1079 932"
    underline-thickness="50"
    underline-position="-150"
    unicode-range="U+0020-FB02"
  />
<missing-glyph horiz-adv-x="220" 
 />
    <glyph glyph-name="fi" unicode="fi" horiz-adv-x="509" 
d="M144 518l13 62q16 75 45 110t103 35q49 0 85 -11l-15 -75q-35 8 -58 8q-38 0 -52.5 -18t-23.5 -60l-11 -51h99l-14 -72h-100l-94 -446h-87l95 446h-83l14 72h84zM517 613h-87l21 102h87zM388 0h-86l108 518h87z" />
    <glyph glyph-name="fl" unicode="fl" horiz-adv-x="509" 
d="M144 518l13 62q16 75 45 110t103 35q49 0 85 -11l-15 -75q-35 8 -58 8q-38 0 -52.5 -18t-23.5 -60l-11 -51h99l-14 -72h-100l-94 -446h-87l95 446h-83l14 72h84zM391 0h-87l150 715h86z" />
    <glyph glyph-name=".notdef" horiz-adv-x="220" 
 />
    <glyph glyph-name=".null" horiz-adv-x="0" 
 />
    <glyph glyph-name="nonmarkingreturn" horiz-adv-x="333" 
 />
    <glyph glyph-name="space" unicode=" " horiz-adv-x="220" 
 />
    <glyph glyph-name="exclam" unicode="!" horiz-adv-x="269" 
d="M141 182h-50l48 348l39 185h100l-40 -191zM134 0h-106l23 105h105z" />
    <glyph glyph-name="quotedbl" unicode="&#x22;" horiz-adv-x="390" 
d="M202 459h-62l3 153l13 103h84l-13 -146zM353 459h-62l3 153l13 103h84l-13 -146z" />
    <glyph glyph-name="numbersign" unicode="#" 
d="M165 -4h-71l36 207h-90l5 70h97l29 164h-118l4 71h126l36 207h71l-36 -207h138l36 207h71l-36 -207h88l-4 -71h-96l-28 -164h114l-4 -70h-122l-36 -207h-71l35 207h-138zM242 437l-28 -164h137l29 164h-138z" />
    <glyph glyph-name="dollar" unicode="$" 
d="M348 728l10 51h51l-11 -57q71 -19 113 -69t43 -130q-58 -2 -87 -2q-4 101 -84 127l-51 -245l58 -23q64 -25 98 -70t34 -104q0 -87 -68.5 -154t-180.5 -67q-16 0 -27 1l-17 -82h-51l19 87q-84 16 -129.5 78.5t-47.5 150.5l90 3q-3 -132 102 -159l55 271q-48 18 -87 45
q-80 56 -80 144q0 97 72 152t176 52zM261 59q5 -1 16 -1q62 0 108.5 39t46.5 100q0 49 -26.5 73t-90.5 49zM285 418l47 236q-56 2 -100 -30.5t-44 -91.5q0 -60 52 -92q17 -11 45 -22z" />
    <glyph glyph-name="percent" unicode="%" horiz-adv-x="907" 
d="M275 657q-40 0 -67.5 -35.5t-37.5 -77.5t-10 -83q0 -77 67 -77q40 0 67 34.5t37 77t10 85.5q0 76 -66 76zM247 -27h-73l513 753h72zM91 475q0 97 52 168.5t131 71.5q67 0 103 -36t36 -105q0 -96 -49.5 -171t-138.5 -75q-134 0 -134 147zM705 314q-40 0 -67.5 -35.5
t-37.5 -77.5t-10 -83q0 -77 67 -77q40 0 67 34.5t37 77t10 85.5q0 76 -66 76zM521 132q0 97 52 168.5t131 71.5q67 0 103 -36t36 -105q0 -96 -49.5 -171t-138.5 -75q-134 0 -134 147z" />
    <glyph glyph-name="ampersand" unicode="&#x26;" horiz-adv-x="649" 
d="M411 134q-76 110 -134 211q-34 -18 -53.5 -30t-43.5 -32t-35 -45t-11 -56q0 -51 36.5 -85t90.5 -34q74 0 150 71zM280 557q0 -46 37 -110q4 2 21 11.5t22.5 13t20 12.5t20.5 14.5t16 15.5t14.5 19t8 20.5t3.5 23.5q0 31 -21 51t-53 20q-37 0 -63 -26t-26 -65zM529 584
q0 -36 -14.5 -67t-43 -55.5t-55 -41.5t-65.5 -37q51 -88 118 -185q46 58 65 123l80 -19q-28 -92 -96 -170q51 -75 93 -113l-87 -27q-41 39 -67 80q-99 -86 -203 -86q-89 0 -148 52.5t-59 140.5q0 148 195 231q-20 36 -27.5 52.5t-14.5 42t-7 53.5q0 66 50 114.5t123 48.5
q38 0 73 -11.5t62.5 -44t27.5 -81.5z" />
    <glyph glyph-name="quotesingle" unicode="'" horiz-adv-x="234" 
d="M196 459h-62l3 153l13 103h84l-13 -146z" />
    <glyph glyph-name="parenleft" unicode="(" horiz-adv-x="296" 
d="M199 -204h-61q-79 176 -79 356q0 212 126 407q48 74 133 170h70q-67 -76 -124 -176q-119 -209 -119 -424q0 -171 54 -333z" />
    <glyph glyph-name="parenright" unicode=")" horiz-adv-x="296" 
d="M-15 -204h-70q67 76 124 176q118 206 118 424q0 171 -54 333h61q79 -177 79 -357q0 -211 -126 -406q-42 -65 -132 -170z" />
    <glyph glyph-name="asterisk" unicode="*" horiz-adv-x="371" 
d="M123 472q48 57 79 88q-37 12 -107 38l24 58q69 -30 104 -49q1 71 6 114h63q-9 -64 -19 -117q27 7 113 29l14 -59q-59 -14 -115 -21q19 -24 67 -96l-54 -32q-39 68 -57 104q-30 -46 -71 -96z" />
    <glyph glyph-name="plus" unicode="+" horiz-adv-x="592" 
d="M351 58h-75v208h-207v75h207v207h75v-207h207v-75h-207v-208z" />
    <glyph glyph-name="comma" unicode="," horiz-adv-x="278" 
d="M3 -145l9 44q61 12 78 101h-56l23 105h106l-18 -86q-16 -76 -49 -117t-93 -47z" />
    <glyph glyph-name="hyphen" unicode="-" horiz-adv-x="361" 
d="M316 226h-280l18 84h279z" />
    <glyph glyph-name="period" unicode="." horiz-adv-x="278" 
d="M142 0h-105l22 105h106z" />
    <glyph glyph-name="slash" unicode="/" horiz-adv-x="305" 
d="M40 -14h-75l341 743h75z" />
    <glyph glyph-name="zero" unicode="0" 
d="M63 395q19 86 52.5 150.5t74.5 100t82.5 52t83.5 16.5q189 0 189 -241q0 -108 -43 -237q-11 -31 -24 -59.5t-36.5 -64.5t-51 -62t-68 -44t-85.5 -18q-91 0 -142 63.5t-51 182.5q0 73 19 161zM423 281q28 109 31 200q4 160 -104 160q-68 0 -116.5 -61.5t-76.5 -173.5
q-27 -111 -26 -190q2 -155 111 -155q62 0 109 62.5t72 157.5z" />
    <glyph glyph-name="one" unicode="1" 
d="M135 463l16 80q66 9 143 56t103 101h59l-150 -700h-89l118 546q-96 -67 -200 -83z" />
    <glyph glyph-name="two" unicode="2" 
d="M375 383q76 57 78 137q1 55 -33.5 86.5t-86.5 31.5q-60 0 -99 -41t-49 -113l-89 7q12 103 77.5 163t167.5 60q86 0 143.5 -55.5t57.5 -135.5q0 -81 -64 -150q-15 -17 -40.5 -37.5t-47 -35.5t-61 -43t-61.5 -44q-58 -42 -90.5 -73t-41.5 -62h346l-17 -78h-439
q18 123 115 209q30 27 234 174z" />
    <glyph glyph-name="three" unicode="3" 
d="M251 -12q-100 0 -161 56t-63 159l91 5q-4 -69 30.5 -107.5t101.5 -38.5q75 0 118 47.5t43 105.5q0 55 -33 85t-89 33q-2 0 -12 0.5t-18 0.5h-16l15 71h47q65 3 103.5 36t38.5 92q0 53 -34 80.5t-84 27.5q-54 0 -91 -36.5t-47 -103.5l-90 11q18 91 78.5 146.5t155.5 55.5
q98 0 149.5 -54t51.5 -127q0 -58 -35.5 -103.5t-90.5 -63.5q45 -19 68.5 -57t23.5 -85q0 -40 -16 -80.5t-45.5 -76t-79 -57.5t-110.5 -22z" />
    <glyph glyph-name="four" unicode="4" 
d="M337 251l68 301h-4l-280 -301h216zM506 174h-97l-38 -174h-87l38 174h-302l18 86q45 49 129 138t152 162t129 140h72l-96 -449h97z" />
    <glyph glyph-name="five" unicode="5" 
d="M85 331l108 369h354l-16 -78h-281l-58 -189h3q57 43 131 43q87 0 139 -59t52 -149q0 -119 -76.5 -199.5t-193.5 -80.5q-95 0 -153 57.5t-54 151.5l88 -7q-4 -54 30 -91.5t89 -37.5q80 0 130.5 59.5t50.5 153.5q0 55 -33 90.5t-90 36.5q-44 1 -86.5 -21t-62.5 -53z" />
    <glyph glyph-name="six" unicode="6" 
d="M428 253q1 63 -34 101.5t-92 38.5q-72 0 -115 -57t-43 -133q0 -61 33 -102t94 -41q24 0 49 9t50 29.5t41.5 60.5t16.5 94zM556 533l-87 -4q-9 108 -93 111q-38 1 -70 -14.5t-54 -39t-40 -58t-28 -64t-19 -64.5h3q60 66 153 66q87 0 140.5 -59t53.5 -148q0 -111 -69 -191
t-180 -80q-102 0 -156 67.5t-54 177.5q0 81 19.5 163t57.5 154.5t101.5 118t142.5 45.5q80 0 127.5 -48t51.5 -133z" />
    <glyph glyph-name="seven" unicode="7" 
d="M573 700l-14 -76q-117 -106 -215 -282.5t-141 -341.5h-94q47 171 139 335t214 287h-363l17 78h457z" />
    <glyph glyph-name="eight" unicode="8" 
d="M208 522q0 -52 31.5 -80t83.5 -28q54 0 90 34.5t36 86.5q0 49 -31.5 77.5t-84.5 28.5q-52 0 -88.5 -35.5t-36.5 -83.5zM263 61q68 0 110.5 47t42.5 115q0 54 -33.5 87.5t-91.5 33.5q-72 0 -115 -45t-43 -117q0 -55 35 -88t95 -33zM412 378q95 -55 93 -163
q-1 -98 -72 -162.5t-171 -64.5q-93 0 -156 52.5t-63 143.5q0 79 43.5 134t117.5 72v1q-39 19 -61.5 54t-22.5 76q0 85 63.5 139t152.5 54q83 0 141.5 -48.5t58.5 -127.5q0 -56 -32.5 -99t-91.5 -61z" />
    <glyph glyph-name="nine" unicode="9" 
d="M286 307q66 0 114 55.5t48 132.5q0 65 -36 105.5t-95 40.5q-69 0 -111 -59t-42 -133q0 -64 33 -103t89 -39zM35 166l88 6q1 -54 27.5 -82t71.5 -28q44 0 78.5 20.5t57.5 58t37.5 74t27.5 84.5h-5q-65 -65 -149 -65q-85 0 -138.5 60t-53.5 148q0 109 69 190.5t177 81.5
q99 0 155.5 -67t56.5 -178q0 -135 -49 -259q-43 -106 -106 -164t-160 -58q-82 0 -131.5 46t-53.5 132z" />
    <glyph glyph-name="colon" unicode=":" horiz-adv-x="278" 
d="M228 412h-106l22 106h106zM142 0h-106l22 105h106z" />
    <glyph glyph-name="semicolon" unicode=";" horiz-adv-x="278" 
d="M248 518l-23 -106h-105l23 106h105zM4 -146l9 44q32 6 49 31.5t28 70.5h-56l23 105h106l-18 -86q-16 -76 -48.5 -117.5t-92.5 -47.5z" />
    <glyph glyph-name="less" unicode="&#x3c;" horiz-adv-x="592" 
d="M559 51l-491 217v72l491 215v-78l-400 -173l400 -175v-78z" />
    <glyph glyph-name="equal" unicode="=" horiz-adv-x="592" 
d="M558 446v-75h-489v75h489zM558 236v-75h-489v75h489z" />
    <glyph glyph-name="greater" unicode="&#x3e;" horiz-adv-x="592" 
d="M559 340v-72l-491 -217v78l400 175l-400 173v78z" />
    <glyph glyph-name="question" unicode="?" 
d="M155 0l23 105h105l-22 -105h-106zM106 504q14 102 79 161.5t161 59.5q85 0 143.5 -47t58.5 -120q0 -31 -8.5 -58.5t-17.5 -44.5t-34 -41.5t-38 -35.5t-50 -39q-51 -40 -77.5 -74.5t-36.5 -83.5h-84q9 74 43 118t112 104q34 26 52.5 43.5t34 45.5t15.5 58q0 46 -32.5 74
t-83.5 28q-63 0 -102 -40.5t-48 -115.5z" />
    <glyph glyph-name="at" unicode="@" horiz-adv-x="908" 
d="M483 -50q96 0 173.5 37t122.5 97h75q-123 -197 -372 -197q-82 0 -158 25t-141 75.5t-101.5 140t-31.5 205.5q8 178 131 289t294 108q71 -1 137.5 -23.5t121 -63.5t87.5 -108t33 -150q0 -113 -79.5 -216.5t-184.5 -103.5q-29 0 -45.5 13t-29.5 40q-3 6 -6 21
q-20 -34 -58.5 -54t-78.5 -20q-45 0 -78 19t-50 49t-24.5 60t-7.5 60q0 117 72 207.5t173 90.5q93 0 129 -86l20 69h75l-77 -305q-13 -50 -13 -64q0 -31 31 -31q46 0 85 46t58 102.5t19 101.5q0 127 -92.5 206t-217.5 79q-74 0 -135.5 -23t-101.5 -60t-67.5 -86.5
t-39.5 -100.5t-12 -103q0 -46 11.5 -92t38.5 -92.5t67.5 -82t104.5 -57.5t143 -22zM390 135q52 0 91.5 41t57 92.5t17.5 97.5q0 52 -25 83.5t-71 31.5q-62 0 -113.5 -68t-51.5 -159q0 -53 27.5 -86t67.5 -33z" />
    <glyph glyph-name="A" unicode="A" horiz-adv-x="667" 
d="M517 0l-34 210h-296l-121 -210h-103l416 715h110l123 -715h-95zM431 556l-10 75h-2l-40 -75l-152 -269h245z" />
    <glyph glyph-name="B" unicode="B" horiz-adv-x="650" 
d="M25 0l149 715h255q219 0 219 -171q0 -60 -37 -108t-97 -64v-1q53 -12 82.5 -51t29.5 -96q0 -97 -73.5 -160.5t-187.5 -63.5h-340zM188 328q-8 -41 -26.5 -124t-26.5 -124h192q38 0 70.5 6t64 21t49.5 44.5t18 71.5q0 57 -36.5 81t-112.5 24h-192zM204 408h178
q171 0 174 133q1 45 -30 69t-106 24h-169z" />
    <glyph glyph-name="C" unicode="C" horiz-adv-x="734" 
d="M585 246l95 -6q-36 -123 -118.5 -188.5t-201.5 -65.5q-139 0 -217 81t-78 228q0 115 45 213t134 159.5t204 61.5q117 0 190 -62.5t79 -173.5l-92 -4q-7 79 -55.5 120t-124.5 41q-92 0 -159 -54.5t-97 -133.5t-30 -168q0 -112 52 -170.5t151 -58.5q81 0 139 47.5t84 133.5
z" />
    <glyph glyph-name="D" unicode="D" horiz-adv-x="713" 
d="M611 155q-108 -155 -333 -155h-253l151 715h233q147 0 216.5 -77.5t69.5 -205.5q0 -157 -84 -277zM137 81h121q170 0 255.5 93.5t85.5 254.5q0 108 -52 156.5t-155 48.5h-139z" />
    <glyph glyph-name="E" unicode="E" horiz-adv-x="638" 
d="M547 0h-522l151 715h504l-17 -81h-409l-47 -224h390l-16 -81h-391l-52 -248h426z" />
    <glyph glyph-name="F" unicode="F" horiz-adv-x="593" 
d="M122 0h-96l150 715h467l-17 -81h-372l-47 -228h353l-17 -80h-353z" />
    <glyph glyph-name="G" unicode="G" horiz-adv-x="766" 
d="M389 289l16 80h312l-19 -106q-23 -116 -113 -196.5t-227 -80.5q-43 0 -82.5 8t-81.5 31t-71 59.5t-45.5 99t-11.5 144.5q12 185 123.5 293t267.5 108q137 0 206.5 -67.5t74.5 -162.5q-61 -4 -94 -5q-7 76 -58.5 115.5t-130.5 39.5q-134 0 -215 -103t-81 -256
q0 -224 203 -224q114 0 177 67.5t72 155.5h-222z" />
    <glyph glyph-name="H" unicode="H" horiz-adv-x="722" 
d="M120 0h-95l150 715h95l-63 -302h372l63 302h96l-150 -715h-95l69 332h-372z" />
    <glyph glyph-name="I" unicode="I" horiz-adv-x="269" 
d="M128 0h-96l150 715h95z" />
    <glyph glyph-name="J" unicode="J" horiz-adv-x="514" 
d="M435 715h95l-111 -531q-42 -198 -224 -198q-88 0 -135.5 39.5t-47.5 113.5q0 37 9 82l91 3q-8 -42 -8 -67q-1 -45 23.5 -68.5t71.5 -23.5q79 0 109 72q10 23 22 79z" />
    <glyph glyph-name="K" unicode="K" horiz-adv-x="666" 
d="M387 422l236 -422h-106l-201 362l-146 -126l-50 -236h-95l151 715h94l-74 -352h3l400 352h126z" />
    <glyph glyph-name="L" unicode="L" horiz-adv-x="558" 
d="M496 0h-470l149 715h96l-132 -634h374z" />
    <glyph glyph-name="M" unicode="M" horiz-adv-x="851" 
d="M871 715l-150 -715h-93l148 622h-1q-44 -84 -353 -622h-92l-90 615h-1l-122 -615h-92l150 715h125l93 -627h1q45 89 351 627h126z" />
    <glyph glyph-name="N" unicode="N" horiz-adv-x="723" 
d="M527 115l120 600h92l-150 -715h-98l-202 474l-51 122h-1l-120 -596h-92l150 715h98l209 -484l44 -116h1z" />
    <glyph glyph-name="O" unicode="O" horiz-adv-x="769" 
d="M450 729q70 0 125.5 -23.5t87 -58.5t52 -80t27.5 -83t7 -73q-1 -78 -26.5 -152.5t-72.5 -136t-122 -99t-167 -37.5q-132 0 -214 86t-82 220q0 187 108.5 312t276.5 125zM655 415q0 54 -14 97t-35.5 68t-50 41t-54 22t-51.5 6q-91 0 -158.5 -51.5t-100 -131t-32.5 -171.5
q0 -107 60 -168.5t152 -61.5q61 0 111 24.5t81 62.5t52.5 86t30.5 92.5t9 84.5z" />
    <glyph glyph-name="P" unicode="P" horiz-adv-x="658" 
d="M198 372h198q51 0 88.5 15.5t57 40.5t28.5 49.5t9 49.5q0 109 -133 109h-192zM377 291h-196l-61 -291h-95l149 715h288q62 0 106 -17.5t65.5 -47t30.5 -59t9 -63.5q0 -21 -4 -44.5t-22 -60t-47 -64t-87.5 -48t-135.5 -20.5z" />
    <glyph glyph-name="Q" unicode="Q" horiz-adv-x="772" 
d="M266 680q88 49 185 49q137 0 218 -89.5t81 -228.5q0 -106 -41.5 -197.5t-117.5 -151.5q51 -59 92 -83l-48 -57q-42 25 -108 99q-62 -36 -152 -36q-63 0 -117 18.5t-97.5 55t-69 99.5t-25.5 146q0 112 50.5 216t149.5 160zM161 300q0 -122 60.5 -178.5t144.5 -56.5
q63 0 99 18q-37 40 -78 64l45 60q56 -31 99 -85q61 48 93.5 125t32.5 167q0 100 -55 167.5t-150 67.5q-72 0 -129.5 -32.5t-91.5 -85t-52 -112t-18 -119.5z" />
    <glyph glyph-name="R" unicode="R" horiz-adv-x="702" 
d="M202 390h228q82 0 126.5 41t44.5 99q0 105 -124 105h-223zM175 715h313q114 0 161.5 -51.5t47.5 -126.5q0 -72 -55 -131.5t-149 -73.5v-1q55 -18 67 -81q11 -56 33.5 -138.5t43.5 -111.5h-107q-29 38 -50 193q-8 60 -33.5 89t-71.5 29h-190l-65 -311h-95z" />
    <glyph glyph-name="S" unicode="S" horiz-adv-x="658" 
d="M322 65q94 0 137 39t43 91q0 75 -91 108q-98 36 -162 64q-122 52 -122 166q0 89 73 142.5t178 53.5q216 0 259 -172q5 -20 5 -47l-93 -6q1 72 -42.5 108.5t-126.5 36.5q-64 0 -112.5 -28t-48.5 -84q0 -71 90 -103q27 -11 85 -32.5t71 -26.5q133 -51 133 -176
q0 -96 -81.5 -154.5t-195.5 -58.5q-128 0 -203 57.5t-76 179.5l95 13v-9q0 -11 5 -43q9 -56 55 -87.5t125 -31.5z" />
    <glyph glyph-name="T" unicode="T" horiz-adv-x="593" 
d="M292 0h-95l133 634h-237l17 81h569l-17 -81h-237z" />
    <glyph glyph-name="U" unicode="U" horiz-adv-x="717" 
d="M84 309l85 406h96l-93 -442q-8 -38 -8 -71q0 -65 44.5 -101t122.5 -36q130 0 180 102q22 46 41 137l87 411h95l-88 -424q-20 -100 -48 -154q-77 -152 -280 -152q-118 0 -184.5 60.5t-63.5 152.5q2 51 14 111z" />
    <glyph glyph-name="V" unicode="V" horiz-adv-x="639" 
d="M327 0h-106l-120 715h94l76 -501l17 -117h1l63 117l271 501h102z" />
    <glyph glyph-name="W" unicode="W" horiz-adv-x="935" 
d="M198 715l21 -509l2 -84h1l288 593h103l36 -597h1l39 88l235 509h98l-346 -715h-101l-32 500l-5 93h-1l-43 -93l-247 -500h-100l-45 715h96z" />
    <glyph glyph-name="X" unicode="X" horiz-adv-x="639" 
d="M396 353l191 -353h-104l-150 295q-41 -52 -254 -295h-117l326 367l-188 348h104l147 -288l249 288h116z" />
    <glyph glyph-name="Y" unicode="Y" horiz-adv-x="639" 
d="M620 715h113l-344 -437l-59 -278h-94l59 282l-204 433h102l133 -293l25 -58l44 58z" />
    <glyph glyph-name="Z" unicode="Z" horiz-adv-x="611" 
d="M542 0h-549l13 75l508 562l-77 -2h-321l18 80h508l-13 -78l-509 -558l71 2h368z" />
    <glyph glyph-name="bracketleft" unicode="[" horiz-adv-x="269" 
d="M181 -197h-192l190 920h193l-14 -66h-108l-163 -787h108z" />
    <glyph glyph-name="backslash" unicode="\" horiz-adv-x="344" 
d="M312 -14h-71l-207 743h70z" />
    <glyph glyph-name="bracketright" unicode="]" horiz-adv-x="269" 
d="M291 723l-192 -920h-192l14 67h108l163 787h-108l14 66h193z" />
    <glyph glyph-name="asciicircum" unicode="^" horiz-adv-x="534" 
d="M288 626l-147 -325h-81l195 412h67l196 -412h-79z" />
    <glyph glyph-name="underscore" unicode="_" horiz-adv-x="528" 
d="M510 -162h-542v57h542v-57z" />
    <glyph glyph-name="grave" unicode="`" horiz-adv-x="278" 
d="M276 577h-65l-100 139h108z" />
    <glyph glyph-name="a" unicode="a" horiz-adv-x="532" 
d="M385 263h-3q-52 -23 -180 -35q-45 -4 -73.5 -27t-28.5 -63q0 -36 26.5 -57t69.5 -21q88 0 138 66q30 39 51 137zM479 301l-43 -202q-8 -32 32 -32l-15 -67q-29 0 -47 3t-35.5 17.5t-18.5 41.5h-2q-71 -74 -177 -74q-71 0 -115 38.5t-44 109.5q0 72 48.5 113t122.5 47
q128 11 155 18q64 18 64 69q0 74 -105 74q-119 0 -141 -95l-87 4q19 80 80 121.5t150 41.5q82 0 137 -31.5t55 -101.5q0 -31 -14 -95z" />
    <glyph glyph-name="b" unicode="b" horiz-adv-x="573" 
d="M144 194q0 -62 34.5 -97t91.5 -35t95.5 38.5t57.5 84.5q25 60 25 128q0 63 -26.5 103t-84.5 40q-113 0 -167 -136q-26 -67 -26 -126zM91 0h-77l150 715h87l-55 -260h2q67 74 152 74q88 0 137.5 -57.5t49.5 -159.5q0 -126 -74 -225t-189 -99q-65 0 -106 29.5t-57 79.5h-1z
" />
    <glyph glyph-name="c" unicode="c" horiz-adv-x="521" 
d="M23 202q0 133 76 230t204 97q86 0 136.5 -45.5t51.5 -128.5l-86 -2q-1 48 -29.5 75.5t-76.5 27.5q-89 0 -138.5 -78t-49.5 -178q0 -65 29 -102.5t85 -37.5q49 0 88.5 31.5t59.5 87.5l86 -5q-27 -90 -88.5 -138t-145.5 -48q-95 0 -148.5 56.5t-53.5 157.5z" />
    <glyph glyph-name="d" unicode="d" horiz-adv-x="571" 
d="M232 61q53 0 93.5 30t61.5 74t31 85.5t9 72.5q-2 60 -34 96.5t-87 36.5q-68 0 -120 -60q-29 -33 -47 -89t-19.5 -111t27 -95t85.5 -40zM513 715h86l-150 -715h-81l17 74h-3q-71 -86 -168 -86q-86 0 -134 56.5t-48 155.5q0 126 76.5 227.5t193.5 101.5q51 0 93 -22.5
t60 -69.5h1z" />
    <glyph glyph-name="e" unicode="e" horiz-adv-x="551" 
d="M430 306q5 79 -29.5 115t-90.5 36q-64 0 -109 -40t-67 -111h296zM482 164q-20 -78 -88 -127t-151 -49q-101 0 -156 60.5t-55 148.5q0 83 34 158.5t98.5 124.5t144.5 49q102 0 153.5 -57.5t51.5 -164.5q0 -37 -7 -72h-386q-2 -26 -2 -36q0 -65 35 -101t89 -36
q52 0 92.5 27.5t61.5 79.5z" />
    <glyph glyph-name="f" unicode="f" horiz-adv-x="287" 
d="M144 518l13 62q16 75 45 110t103 35q49 0 85 -11l-15 -75q-35 8 -58 8q-38 0 -52.5 -18t-23.5 -60l-11 -51h99l-14 -72h-100l-94 -446h-87l95 446h-83l14 72h84z" />
    <glyph glyph-name="g" unicode="g" horiz-adv-x="564" 
d="M132 288q-12 -61 -7.5 -102.5t24.5 -67t43.5 -36.5t48.5 -11q41 0 86 28.5t71 92.5q28 67 28 127q0 63 -34 100t-93 37q-30 0 -60.5 -14.5t-61.5 -54t-45 -99.5zM477 518h80l-109 -513q-24 -112 -91 -163t-157 -51q-94 0 -145 42.5t-53 118.5l87 -4q2 -83 108 -83
q67 0 103 31t56 96l24 80h-3q-61 -74 -154 -74q-32 0 -62.5 11t-60 34.5t-48 68t-18.5 104.5q0 76 33.5 148t95 118.5t135.5 46.5q55 0 97 -27t64 -74h2z" />
    <glyph glyph-name="h" unicode="h" horiz-adv-x="553" 
d="M501 307l-65 -307h-86l66 308q6 27 9 43t2.5 39t-7.5 35t-24.5 21.5t-45.5 9.5q-41 0 -80.5 -21.5t-63.5 -56.5q-37 -52 -57 -152l-47 -226h-87l150 715h87l-61 -275h3q79 89 176 89q69 0 104 -31.5t36.5 -80.5t-9.5 -110z" />
    <glyph glyph-name="i" unicode="i" horiz-adv-x="223" 
d="M231 613h-87l21 102h87zM102 0h-86l108 518h87z" />
    <glyph glyph-name="j" unicode="j" horiz-adv-x="213" 
d="M162 715h86l-21 -102h-87zM-58 -125q45 2 55 54l123 589h87l-133 -619q-11 -51 -46.5 -76.5t-85.5 -25.5q-30 0 -66 10l19 75q18 -7 47 -7z" />
    <glyph glyph-name="k" unicode="k" horiz-adv-x="491" 
d="M443 0h-94l-106 270l-104 -92l-38 -178h-86l151 715h85l-92 -432l1 -1l260 236h114l-223 -193z" />
    <glyph glyph-name="l" unicode="l" horiz-adv-x="218" 
d="M102 0h-87l150 715h86z" />
    <glyph glyph-name="m" unicode="m" horiz-adv-x="842" 
d="M727 0h-86l71 335q9 40 9 58q0 63 -70 63q-38 0 -76.5 -23t-60.5 -56q-28 -41 -44 -118l-55 -259h-87l74 350q6 30 6 43q0 29 -17.5 46t-47.5 17t-63 -16.5t-58 -42.5q-44 -47 -64 -139l-55 -258h-86l109 518h83l-19 -83h2q81 94 176 94q107 0 127 -95q73 95 176 95
q63 0 100 -29.5t37 -86.5q0 -30 -13 -91z" />
    <glyph glyph-name="n" unicode="n" horiz-adv-x="553" 
d="M501 304l-65 -304h-86l67 315q11 55 11 75q0 36 -20 51t-59 15q-63 0 -125 -55q-39 -35 -60 -110q-3 -10 -62 -291h-87l109 518h81l-18 -85h2q83 96 186 96q68 0 104 -33t36 -96q0 -32 -14 -96z" />
    <glyph glyph-name="o" unicode="o" horiz-adv-x="565" 
d="M444 311q0 66 -34.5 106.5t-95.5 40.5q-86 0 -140.5 -76t-54.5 -177q0 -69 36 -107t101 -38q78 0 133 74.5t55 176.5zM319 529q52 0 91.5 -16t61.5 -39.5t35.5 -54.5t18 -56t4.5 -49q0 -82 -31 -154.5t-97.5 -122t-155.5 -49.5q-94 0 -153.5 60t-59.5 152
q0 88 32.5 161.5t99 120.5t154.5 47z" />
    <glyph glyph-name="p" unicode="p" horiz-adv-x="572" 
d="M208 391q-28 -34 -46 -90.5t-18 -96.5q0 -68 30.5 -105t88.5 -37q48 0 86.5 28t59.5 70t31.5 83.5t10.5 75.5q0 65 -32 101t-90 36q-67 0 -121 -65zM267 -12q-51 0 -91.5 23t-59.5 70h-3l-57 -279h-85l150 716h80l-16 -74h3q61 85 162 85q87 0 137 -56t50 -154
q0 -133 -76.5 -232t-193.5 -99z" />
    <glyph glyph-name="q" unicode="q" horiz-adv-x="572" 
d="M128 281q-23 -88 4 -153.5t105 -65.5q47 0 92.5 35t67.5 93q28 74 28 134t-34 96t-89 36q-32 0 -60.5 -14t-46.5 -33.5t-33 -45.5t-22.5 -45t-11.5 -37zM216 -11q-86 0 -135 55t-49 155q0 85 31.5 159.5t93.5 122.5t141 48q114 0 156 -100h1l18 89h81l-150 -716h-87
l55 260h-1q-58 -73 -155 -73z" />
    <glyph glyph-name="r" unicode="r" horiz-adv-x="355" 
d="M16 0l108 518h80l-24 -109h3q64 113 162 119q27 3 55 -8l-27 -85q-15 7 -38 7q-44 0 -78 -19.5t-55 -56t-33 -70t-22 -78.5l-47 -218h-84z" />
    <glyph glyph-name="s" unicode="s" horiz-adv-x="481" 
d="M260 459q-50 0 -76.5 -20t-26.5 -47q0 -22 15 -36.5t43 -28.5q23 -11 121 -55q92 -41 92 -125q0 -72 -60 -115.5t-151 -43.5q-96 0 -154.5 44t-56.5 137l88 5q-6 -57 29.5 -85.5t97.5 -28.5q53 0 86 20.5t33 57.5q0 40 -45 62q-16 8 -37.5 18t-47.5 22t-38 18
q-47 22 -73 50.5t-26 71.5q0 70 56.5 109.5t132.5 39.5q88 0 143 -42t55 -122l-85 -3q0 46 -30 71.5t-85 25.5z" />
    <glyph glyph-name="t" unicode="t" horiz-adv-x="296" 
d="M243 74l-17 -74q-34 -6 -57 -7t-54 3t-47.5 24t-16.5 55q0 12 9 60l66 311h-89l15 72h89l29 140l93 30l-36 -170h95l-15 -72h-95l-62 -295q-8 -40 -8 -50q0 -48 101 -27z" />
    <glyph glyph-name="u" unicode="u" horiz-adv-x="544" 
d="M345 0l19 86h-2q-80 -98 -188 -98q-66 0 -102 33.5t-36 92.5q0 37 15 106l63 298h87l-68 -317q-10 -46 -10 -72q0 -33 21.5 -50t58.5 -17q64 0 117.5 50t67.5 117l61 289h87l-109 -518h-82z" />
    <glyph glyph-name="v" unicode="v" horiz-adv-x="491" 
d="M526 518l-289 -518h-97l-80 518h87l48 -364l8 -70h1l36 70l191 364h95z" />
    <glyph glyph-name="w" unicode="w" horiz-adv-x="740" 
d="M509 0h-91l-23 408h-2l-183 -408h-93l-58 518h87l30 -347l4 -70h1l30 70l154 347h96l20 -347l3 -70h1l32 70l162 347h90z" />
    <glyph glyph-name="x" unicode="x" horiz-adv-x="491" 
d="M427 0h-97l-92 200l-165 -200h-106l233 268l-122 250h97l83 -190l152 190h106l-220 -257z" />
    <glyph glyph-name="y" unicode="y" horiz-adv-x="491" 
d="M-31 -198l10 76q25 -11 51 -11q22 0 40.5 13t26 23t18.5 28l40 69l-89 518h88l59 -415h2l224 415h94l-344 -609q-29 -52 -66.5 -85.5t-95.5 -33.5q-32 0 -58 12z" />
    <glyph glyph-name="z" unicode="z" horiz-adv-x="472" 
d="M411 0h-418l13 66l353 378l-62 -1h-220l15 75h397l-12 -59l-359 -384l61 1h247z" />
    <glyph glyph-name="braceleft" unicode="{" horiz-adv-x="334" 
d="M152 -93q0 -36 34 -41q16 -2 50 -2l-14 -68q-26 -1 -49 0q-49 2 -79.5 29t-23.5 85q3 25 20.5 114.5t21.5 119.5q4 35 -16.5 58t-54.5 23l16 74q37 1 67.5 26.5t41.5 71.5l48 202q15 62 55.5 96t90.5 34h60l-15 -68h-41q-47 0 -63 -44q-10 -29 -29.5 -117t-26.5 -112
q-26 -90 -117 -125l-1 -1q67 -24 67 -102q0 -34 -21 -128.5t-21 -124.5z" />
    <glyph glyph-name="bar" unicode="|" horiz-adv-x="241" 
d="M157 -114h-72v843h72v-843z" />
    <glyph glyph-name="braceright" unicode="}" horiz-adv-x="334" 
d="M220 378q0 -37 19.5 -57.5t51.5 -21.5l-16 -74q-38 0 -68.5 -29t-43.5 -76q-6 -22 -45 -193q-28 -131 -159 -131h-46l15 68h36q58 0 69 51q31 143 52 216q27 97 120 130v2q-63 27 -66 90q-2 34 5.5 80t20.5 103.5t17 82.5q3 17 -5.5 28t-24.5 13q-9 1 -56 1l15 68h30
q32 0 50 -3q32 -5 52.5 -29t20.5 -63q0 -14 -22 -125.5t-22 -130.5z" />
    <glyph glyph-name="asciitilde" unicode="~" horiz-adv-x="592" 
d="M555 299q-62 -71 -130 -71q-47 0 -121 38q-58 30 -106 30q-30 0 -52.5 -17t-53.5 -54l-18 75q52 73 131 73q58 0 131 -37q64 -32 94 -32q51 0 107 71z" />
    <glyph glyph-name="uni00A0" unicode="&#xa0;" horiz-adv-x="220" 
 />
    <glyph glyph-name="exclamdown" unicode="&#xa1;" horiz-adv-x="296" 
d="M160 518h105l-22 -106h-105zM152 336h51l-49 -349l-39 -185h-100l40 185z" />
    <glyph glyph-name="cent" unicode="&#xa2;" 
d="M180 -1q-61 20 -94.5 72t-33.5 132q0 133 76 229.5t204 96.5q14 0 20 -1l47 145l44 -10l-46 -142q120 -32 123 -166l-86 -2q-2 71 -60 95l-125 -388h5q49 0 88.5 31.5t59.5 87.5l86 -5q-27 -90 -88.5 -138t-145.5 -48q-19 0 -28 1l-47 -148l-47 12zM203 70l125 385
q-62 0 -110 -43q-35 -31 -56.5 -92.5t-21.5 -119.5q0 -100 63 -130z" />
    <glyph glyph-name="sterling" unicode="&#xa3;" 
d="M506 28q-56 -42 -133 -42q-37 0 -104 23.5t-100 23.5q-61 0 -135 -45l-20 80q58 37 98 91.5t40 111.5q0 27 -6 51h-97l13 60h73q-16 84 -16 118q0 97 72 163t170 66q96 0 153 -59.5t57 -158.5l-85 -4q-1 65 -34 107t-91 42q-67 0 -109.5 -48t-42.5 -120q0 -47 17 -106
h147l-12 -60h-127q6 -24 6 -44q0 -99 -120 -191l1 -1q35 15 67 15q43 0 99.5 -17.5t88.5 -17.5q63 0 101 39z" />
    <glyph glyph-name="currency" unicode="&#xa4;" horiz-adv-x="599" 
d="M52 543l53 54l62 -62q57 43 133 43q73 0 130 -43l62 62l53 -54l-61 -61q43 -55 43 -132q0 -74 -43 -132l61 -61l-52 -53l-61 63q-55 -45 -132 -45q-78 0 -134 45l-62 -63l-52 53l62 62q-44 60 -44 130q0 78 45 132zM300 500q-63 0 -105 -42t-42 -109q0 -66 42 -107.5
t104 -41.5t103.5 42t41.5 108t-41.5 108t-102.5 42z" />
    <glyph glyph-name="yen" unicode="&#xa5;" 
d="M651 715l-256 -348h129l-13 -63h-164l-15 -35l-9 -39h173l-14 -63h-172l-35 -167h-89l35 167h-172l14 63h171l8 44v30h-165l14 63h133l-122 348h93l94 -288l16 -54l35 53l203 289h108z" />
    <glyph glyph-name="brokenbar" unicode="&#xa6;" horiz-adv-x="243" 
d="M85 729h72v-339h-72v339zM85 225h72v-339h-72v339z" />
    <glyph glyph-name="section" unicode="&#xa7;" 
d="M222 208q7 -6 55.5 -52.5t53.5 -50.5q97 34 97 105q0 21 -11.5 41t-22.5 31t-40 36q-103 95 -120 117q-38 -13 -62 -37q-25 -25 -31 -51t7 -51t30 -45t44 -43zM409 -44q-2 -76 -58 -118t-137 -42q-82 0 -134.5 49t-61.5 129l81 10q6 -56 38.5 -87t84.5 -31q43 0 72.5 25
t29.5 62q0 27 -15 49.5t-44 51.5q-12 12 -76 72t-73 69q-56 61 -56 123q0 113 139 164q-30 40 -30 91q0 71 52.5 113.5t133.5 42.5q83 0 130.5 -43t51.5 -127l-84 -6q0 49 -26 76t-76 27q-41 0 -69.5 -23.5t-28.5 -58.5q0 -28 16 -53q21 -32 107 -112.5t102 -100.5
q32 -40 32 -87q0 -57 -37 -101t-103 -64q41 -46 39 -100z" />
    <glyph glyph-name="dieresis" unicode="&#xa8;" horiz-adv-x="434" 
d="M240 596h-90l21 102h91zM411 596h-90l21 102h91z" />
    <glyph glyph-name="copyright" unicode="&#xa9;" horiz-adv-x="768" 
d="M529 292l64 -9q-15 -67 -64 -106t-118 -39q-94 0 -151 60.5t-57 158.5q0 99 58.5 158.5t150.5 59.5q69 0 116.5 -35t60.5 -98l-61 -7q-11 40 -42 63t-75 23q-65 0 -103 -44.5t-38 -118.5q0 -75 37.5 -119.5t99.5 -44.5q47 0 80.5 27t41.5 71zM403 729q154 0 262.5 -108.5
t108.5 -262.5t-108.5 -262.5t-262.5 -108.5t-262.5 108.5t-108.5 262.5t108.5 262.5t262.5 108.5zM403 670q-129 0 -218 -91.5t-89 -220.5t89 -220.5t218 -91.5t218 91.5t89 220.5t-89 220.5t-218 91.5z" />
    <glyph glyph-name="ordfeminine" unicode="&#xaa;" horiz-adv-x="341" 
d="M293 535q-18 -12 -106 -17q-65 -5 -65 -52q0 -19 16 -30.5t40 -11.5q46 0 76.5 30t38.5 81zM95 614q31 104 153 104q54 0 92.5 -23t38.5 -62q0 -15 -38 -177q-7 -31 21 -31l-12 -47q-25 -8 -51.5 1t-19.5 35h-1q-17 -19 -48 -31.5t-62 -12.5q-52 0 -83.5 26t-27.5 73
q7 91 134 100q94 6 113 19q9 21 9 35q0 42 -66 42q-70 0 -88 -57z" />
    <glyph glyph-name="guillemotleft" unicode="&#xab;" horiz-adv-x="510" 
d="M167 74l-113 185l17 57l179 144l24 -42l-146 -146l82 -155zM360 74l-113 185l17 57l179 144l24 -42l-146 -146l82 -155z" />
    <glyph glyph-name="logicalnot" unicode="&#xac;" horiz-adv-x="592" 
d="M558 450v-288h-77v213h-412v75h489z" />
    <glyph glyph-name="uni00AD" unicode="&#xad;" horiz-adv-x="361" 
d="M316 226h-280l18 84h279z" />
    <glyph glyph-name="registered" unicode="&#xae;" horiz-adv-x="768" 
d="M403 729q154 0 262.5 -108.5t108.5 -262.5t-108.5 -262.5t-262.5 -108.5t-262.5 108.5t-108.5 262.5t108.5 262.5t262.5 108.5zM403 670q-129 0 -218 -91.5t-89 -220.5t89 -220.5t218 -91.5t218 91.5t89 220.5t-89 220.5t-218 91.5zM256 564h159q84 0 119.5 -33.5
t35.5 -82.5q0 -48 -31.5 -77t-83.5 -35q22 -11 38 -34q7 -10 40 -71.5t56 -83.5h-76q-19 19 -40 67t-46.5 79.5t-67.5 31.5h-37v-178h-66v417zM403 510h-81v-130h74q54 0 80 15t26 52q0 63 -99 63z" />
    <glyph glyph-name="macron" unicode="&#xaf;" horiz-adv-x="474" 
d="M363 608h-258l15 68h258z" />
    <glyph glyph-name="degree" unicode="&#xb0;" horiz-adv-x="400" 
d="M247 718q59 0 101 -40t42 -101t-42 -101t-101 -40t-101 40t-42 101t42 101t101 40zM247 670q-39 0 -65.5 -26.5t-26.5 -66.5t26.5 -66.5t65.5 -26.5t65.5 26.5t26.5 66.5t-26.5 66.5t-65.5 26.5z" />
    <glyph glyph-name="plusminus" unicode="&#xb1;" horiz-adv-x="574" 
d="M336 116h-76v182h-205v74h205v181h76v-181h206v-74h-206v-182zM542 75v-75h-487v75h487z" />
    <glyph glyph-name="twosuperior" unicode="&#xb2;" horiz-adv-x="451" 
d="M153 585l-71 4q11 61 52.5 94.5t111.5 33.5q61 0 97.5 -30t36.5 -79q0 -43 -24 -72t-70 -56q-11 -7 -49.5 -28t-65.5 -39t-37 -35h212l-11 -59h-292q7 59 48 101q46 48 133 96q28 15 42.5 24t28.5 26.5t14 38.5q0 25 -17.5 40t-48.5 15q-77 0 -90 -75z" />
    <glyph glyph-name="threesuperior" unicode="&#xb3;" horiz-adv-x="429" 
d="M198 311q-68 0 -107 32.5t-45 89.5l72 4q3 -31 24 -50t58 -19q39 0 63.5 20.5t24.5 52.5q0 57 -69 57h-30l10 51q9 -1 29 -1q34 0 57.5 17t23.5 47q0 51 -67 51q-68 0 -81 -64l-70 4q8 51 48.5 82.5t103.5 31.5q62 0 99 -28t37 -75q0 -32 -23.5 -57.5t-60.5 -34.5v-1
q65 -19 65 -85q0 -44 -42.5 -84.5t-119.5 -40.5z" />
    <glyph glyph-name="acute" unicode="&#xb4;" horiz-adv-x="365" 
d="M297 577h-71l92 139h115z" />
    <glyph glyph-name="mu" unicode="&#xb5;" 
d="M348 0l19 86h-2q-80 -98 -188 -98q-45 0 -84 21l-41 -207h-85l150 716h87l-68 -317q-10 -46 -10 -72q0 -33 21.5 -50t58.5 -17q64 0 117.5 50t67.5 117l61 289h87l-109 -518h-82z" />
    <glyph glyph-name="mu" unicode="&#x3bc;" 
d="M348 0l19 86h-2q-80 -98 -188 -98q-45 0 -84 21l-41 -207h-85l150 716h87l-68 -317q-10 -46 -10 -72q0 -33 21.5 -50t58.5 -17q64 0 117.5 50t67.5 117l61 289h87l-109 -518h-82z" />
    <glyph glyph-name="paragraph" unicode="&#xb6;" horiz-adv-x="568" 
d="M468 -177h-74l85 822h-118l-84 -822h-73l51 501q-85 0 -137.5 57.5t-46.5 134.5q7 96 72.5 147.5t176.5 51.5h165l108 -43l-48 -62z" />
    <glyph glyph-name="periodcentered" unicode="&#xb7;" horiz-adv-x="278" 
d="M179 195h-105l22 105h106z" />
    <glyph glyph-name="cedilla" unicode="&#xb8;" horiz-adv-x="278" 
d="M87 -209q-41 0 -80 15l13 49q27 -9 64 -9q74 -1 74 34q0 25 -31 25q-26 0 -43 -4l-16 21l37 83h55l-34 -53l1 -1q10 2 16 2q40 0 64.5 -19t24.5 -53q0 -36 -37 -63t-108 -27z" />
    <glyph glyph-name="onesuperior" unicode="&#xb9;" horiz-adv-x="424" 
d="M106 574l11 58q42 4 85 27t66 56h51l-83 -398h-72l65 297q-48 -34 -123 -40z" />
    <glyph glyph-name="ordmasculine" unicode="&#xba;" horiz-adv-x="355" 
d="M204 429q42 0 72 28t40.5 59t10.5 59q0 38 -22.5 62t-60.5 24q-51 0 -86.5 -44.5t-35.5 -103.5q0 -40 24 -62t58 -22zM57 520q0 73 52 135.5t137 62.5q68 0 107.5 -38t39.5 -103q0 -75 -51 -141t-138 -66q-69 0 -108 39.5t-39 110.5z" />
    <glyph glyph-name="guillemotright" unicode="&#xbb;" horiz-adv-x="510" 
d="M462 274l-17 -55l-181 -145l-24 45l146 144l-76 157l40 40zM266 274l-17 -55l-181 -145l-24 45l146 144l-76 157l40 40z" />
    <glyph glyph-name="onequarter" unicode="&#xbc;" horiz-adv-x="834" 
d="M106 574l11 58q42 4 85 27t66 56h51l-83 -398h-72l65 297q-48 -34 -123 -40zM737 726l-562 -755h-72l559 755h75zM656 140l37 155h-2q-26 -25 -78.5 -77.5t-79.5 -77.5h123zM463 143l259 254h58l-56 -257h55l-13 -56h-54l-19 -84h-66l18 84h-194z" />
    <glyph glyph-name="onehalf" unicode="&#xbd;" horiz-adv-x="834" 
d="M106 574l11 58q42 4 85 27t66 56h51l-83 -398h-72l65 297q-48 -34 -123 -40zM726 726l-562 -755h-72l559 755h75zM577 266l-71 4q11 61 52.5 94.5t111.5 33.5q61 0 97.5 -30t36.5 -79q0 -43 -24 -72t-70 -56q-11 -7 -49.5 -28t-65.5 -39t-37 -35h212l-11 -59h-292
q7 59 48 101q46 48 133 96q28 15 42.5 24t28.5 26.5t14 38.5q0 25 -17.5 40t-48.5 15q-77 0 -90 -75z" />
    <glyph glyph-name="threequarters" unicode="&#xbe;" horiz-adv-x="867" 
d="M675 140l37 155h-2q-26 -25 -79 -77.5t-79 -77.5h123zM482 143l259 254h58l-56 -257h55l-13 -56h-54l-19 -84h-66l18 84h-194zM782 726l-562 -755h-72l559 755h75zM198 311q-68 0 -107 32.5t-45 89.5l72 4q3 -31 24 -50t58 -19q39 0 63.5 20.5t24.5 52.5q0 57 -69 57h-30
l10 51q9 -1 29 -1q34 0 57.5 17t23.5 47q0 51 -67 51q-68 0 -81 -64l-70 4q8 51 48.5 82.5t103.5 31.5q62 0 99 -28t37 -75q0 -32 -23.5 -57.5t-60.5 -34.5v-1q65 -19 65 -85q0 -44 -42.5 -84.5t-119.5 -40.5z" />
    <glyph glyph-name="questiondown" unicode="&#xbf;" horiz-adv-x="584" 
d="M474 14q-14 -102 -79 -161.5t-161 -59.5q-85 0 -143 46.5t-58 119.5q0 31 8 58t18 45.5t33.5 42t38 35.5t49.5 39q71 55 99 109q10 19 15 49h84q-13 -84 -59 -139q-19 -23 -96 -83q-34 -26 -52.5 -43.5t-34 -45.5t-15.5 -58q0 -46 32.5 -74t83.5 -28q63 0 102 40.5
t48 115.5zM425 518l-23 -105h-105l22 105h106z" />
    <glyph glyph-name="Agrave" unicode="&#xc0;" horiz-adv-x="667" 
d="M476 777h-65l-100 139h108zM517 0l-34 210h-296l-121 -210h-103l416 715h110l123 -715h-95zM431 556l-10 75h-2l-40 -75l-152 -269h245z" />
    <glyph glyph-name="Aacute" unicode="&#xc1;" horiz-adv-x="667" 
d="M483 777h-70l90 139h116zM517 0l-34 210h-296l-121 -210h-103l416 715h110l123 -715h-95zM431 556l-10 75h-2l-40 -75l-152 -269h245z" />
    <glyph glyph-name="Acircumflex" unicode="&#xc2;" horiz-adv-x="667" 
d="M377 777h-85l132 138h92l69 -138h-76l-46 87zM517 0l-34 210h-296l-121 -210h-103l416 715h110l123 -715h-95zM431 556l-10 75h-2l-40 -75l-152 -269h245z" />
    <glyph glyph-name="Atilde" unicode="&#xc3;" horiz-adv-x="667" 
d="M344 775h-56q29 109 99 109q23 0 74.5 -22t61.5 -22q31 0 46 40h55q-10 -48 -35 -78t-64 -30q-25 0 -75.5 22t-61.5 22q-33 0 -44 -41zM517 0l-34 210h-296l-121 -210h-103l416 715h110l123 -715h-95zM431 556l-10 75h-2l-40 -75l-152 -269h245z" />
    <glyph glyph-name="Adieresis" unicode="&#xc4;" horiz-adv-x="667" 
d="M407 786h-90l21 102h91zM578 786h-90l21 102h91zM517 0l-34 210h-296l-121 -210h-103l416 715h110l123 -715h-95zM431 556l-10 75h-2l-40 -75l-152 -269h245z" />
    <glyph glyph-name="Aring" unicode="&#xc5;" horiz-adv-x="667" 
d="M365 828q0 43 31.5 73.5t75.5 30.5q33 0 54 -21.5t21 -53.5q0 -43 -31.5 -72.5t-74.5 -29.5q-34 0 -55 20.5t-21 52.5zM465 889q-22 0 -39 -16t-17 -38q0 -37 39 -37q22 0 38 16t16 39q0 36 -37 36zM517 0l-34 210h-296l-121 -210h-103l416 715h110l123 -715h-95z
M431 556l-10 75h-2l-40 -75l-152 -269h245z" />
    <glyph glyph-name="AE" unicode="&#xc6;" horiz-adv-x="963" 
d="M49 0h-109l480 715h584l-17 -81h-360l-46 -224h351l-17 -81h-351l-53 -248h385l-17 -81h-484l43 206h-253zM467 634l-229 -348h217l75 348h-63z" />
    <glyph glyph-name="Ccedilla" unicode="&#xc7;" horiz-adv-x="722" 
d="M263 -209q-41 0 -80 15l13 49q27 -9 64 -9q74 -1 74 34q0 25 -31 25q-26 0 -43 -4l-16 21l32 73q-101 22 -156.5 99t-55.5 201q0 115 45 213t134 159.5t204 61.5q117 0 190 -62.5t79 -173.5l-92 -4q-7 79 -53 120t-122 41q-70 0 -127 -31.5t-92 -83t-53.5 -114
t-18.5 -127.5q0 -107 54 -168t150 -61q81 0 138.5 47.5t83.5 133.5l95 -6q-36 -123 -118.5 -188.5t-201.5 -65.5q-12 0 -34 2l-23 -36l1 -1q10 2 16 2q40 0 64.5 -19t24.5 -53q0 -36 -37 -63t-108 -27z" />
    <glyph glyph-name="Egrave" unicode="&#xc8;" horiz-adv-x="639" 
d="M497 777h-65l-100 139h108zM548 0h-522l151 715h504l-17 -81h-409l-47 -224h390l-16 -81h-391l-52 -248h426z" />
    <glyph glyph-name="Eacute" unicode="&#xc9;" horiz-adv-x="639" 
d="M463 777h-70l90 139h116zM548 0h-522l151 715h504l-17 -81h-409l-47 -224h390l-16 -81h-391l-52 -248h426z" />
    <glyph glyph-name="Ecircumflex" unicode="&#xca;" horiz-adv-x="639" 
d="M379 777h-85l132 138h92l69 -138h-76l-46 87zM548 0h-522l151 715h504l-17 -81h-409l-47 -224h390l-16 -81h-391l-52 -248h426z" />
    <glyph glyph-name="Edieresis" unicode="&#xcb;" horiz-adv-x="639" 
d="M404 786h-90l21 102h91zM575 786h-90l21 102h91zM548 0h-522l151 715h504l-17 -81h-409l-47 -224h390l-16 -81h-391l-52 -248h426z" />
    <glyph glyph-name="Igrave" unicode="&#xcc;" horiz-adv-x="269" 
d="M274 777h-65l-100 139h108zM128 0h-96l150 715h95z" />
    <glyph glyph-name="Iacute" unicode="&#xcd;" horiz-adv-x="269" 
d="M269 777h-70l90 139h116zM128 0h-96l150 715h95z" />
    <glyph glyph-name="Icircumflex" unicode="&#xce;" horiz-adv-x="269" 
d="M172 777h-85l132 138h92l69 -138h-76l-46 87zM128 0h-96l150 715h95z" />
    <glyph glyph-name="Idieresis" unicode="&#xcf;" horiz-adv-x="269" 
d="M202 786h-90l21 102h91zM373 786h-90l21 102h91zM128 0h-96l150 715h95z" />
    <glyph glyph-name="Eth" unicode="&#xd0;" horiz-adv-x="713" 
d="M30 0l70 332h-72l14 67h72l67 316h232q132 0 209 -70.5t77 -205.5q0 -194 -108 -316.5t-296 -122.5h-265zM258 634l-50 -235h199l-14 -67h-199l-53 -252h139q145 0 234 94t89 255q0 106 -49.5 155.5t-156.5 49.5h-139z" />
    <glyph glyph-name="Ntilde" unicode="&#xd1;" horiz-adv-x="722" 
d="M366 775h-56q29 109 99 109q23 0 74.5 -22t61.5 -22q31 0 46 40h55q-10 -48 -35 -78t-64 -30q-25 0 -75.5 22t-61.5 22q-33 0 -44 -41zM530 115l120 600h92l-150 -715h-98l-202 474l-51 122h-1l-120 -596h-92l150 715h98l209 -484l44 -116h1z" />
    <glyph glyph-name="Ograve" unicode="&#xd2;" horiz-adv-x="769" 
d="M507 777h-65l-100 139h108zM450 729q70 0 125.5 -23.5t87 -58.5t52 -80t27.5 -83t7 -73q-1 -78 -26.5 -152.5t-72.5 -136t-122 -99t-167 -37.5q-132 0 -214 86t-82 220q0 187 108.5 312t276.5 125zM655 415q0 54 -14 97t-35.5 68t-50 41t-54 22t-51.5 6
q-91 0 -158.5 -51.5t-100 -131t-32.5 -171.5q0 -107 60 -168.5t152 -61.5q61 0 111 24.5t81 62.5t52.5 86t30.5 92.5t9 84.5z" />
    <glyph glyph-name="Oacute" unicode="&#xd3;" horiz-adv-x="769" 
d="M499 777h-70l90 139h116zM450 729q70 0 125.5 -23.5t87 -58.5t52 -80t27.5 -83t7 -73q-1 -78 -26.5 -152.5t-72.5 -136t-122 -99t-167 -37.5q-132 0 -214 86t-82 220q0 187 108.5 312t276.5 125zM655 415q0 54 -14 97t-35.5 68t-50 41t-54 22t-51.5 6q-91 0 -158.5 -51.5
t-100 -131t-32.5 -171.5q0 -107 60 -168.5t152 -61.5q61 0 111 24.5t81 62.5t52.5 86t30.5 92.5t9 84.5z" />
    <glyph glyph-name="Ocircumflex" unicode="&#xd4;" horiz-adv-x="769" 
d="M417 777h-85l132 138h92l69 -138h-76l-46 87zM450 729q70 0 125.5 -23.5t87 -58.5t52 -80t27.5 -83t7 -73q-1 -78 -26.5 -152.5t-72.5 -136t-122 -99t-167 -37.5q-132 0 -214 86t-82 220q0 187 108.5 312t276.5 125zM655 415q0 54 -14 97t-35.5 68t-50 41t-54 22t-51.5 6
q-91 0 -158.5 -51.5t-100 -131t-32.5 -171.5q0 -107 60 -168.5t152 -61.5q61 0 111 24.5t81 62.5t52.5 86t30.5 92.5t9 84.5z" />
    <glyph glyph-name="Otilde" unicode="&#xd5;" horiz-adv-x="769" 
d="M385 775h-56q29 109 99 109q23 0 74.5 -22t61.5 -22q31 0 46 40h55q-10 -48 -35 -78t-64 -30q-25 0 -75.5 22t-61.5 22q-33 0 -44 -41zM450 729q70 0 125.5 -23.5t87 -58.5t52 -80t27.5 -83t7 -73q-1 -78 -26.5 -152.5t-72.5 -136t-122 -99t-167 -37.5q-132 0 -214 86
t-82 220q0 187 108.5 312t276.5 125zM655 415q0 54 -14 97t-35.5 68t-50 41t-54 22t-51.5 6q-91 0 -158.5 -51.5t-100 -131t-32.5 -171.5q0 -107 60 -168.5t152 -61.5q61 0 111 24.5t81 62.5t52.5 86t30.5 92.5t9 84.5z" />
    <glyph glyph-name="Odieresis" unicode="&#xd6;" horiz-adv-x="769" 
d="M446 786h-90l21 102h91zM617 786h-90l21 102h91zM450 729q70 0 125.5 -23.5t87 -58.5t52 -80t27.5 -83t7 -73q-1 -78 -26.5 -152.5t-72.5 -136t-122 -99t-167 -37.5q-132 0 -214 86t-82 220q0 187 108.5 312t276.5 125zM655 415q0 54 -14 97t-35.5 68t-50 41t-54 22
t-51.5 6q-91 0 -158.5 -51.5t-100 -131t-32.5 -171.5q0 -107 60 -168.5t152 -61.5q61 0 111 24.5t81 62.5t52.5 86t30.5 92.5t9 84.5z" />
    <glyph glyph-name="multiply" unicode="&#xd7;" horiz-adv-x="643" 
d="M153 83l-54 53l168 168l-167 167l54 53l167 -166l167 166l53 -53l-166 -167l167 -167l-54 -54l-167 167z" />
    <glyph glyph-name="Oslash" unicode="&#xd8;" horiz-adv-x="770" 
d="M163 57l-87 -93l-38 35l90 96q-63 80 -63 197t46 216t135.5 160t204.5 61q124 0 202 -73l87 93l34 -36l-88 -94q65 -85 65 -208q0 -113 -48.5 -210t-138.5 -156t-202 -59q-117 0 -199 71zM224 122q57 -57 148 -57q86 0 153 54t99 132.5t32 163.5q0 79 -33 136zM192 164
l401 427q-55 58 -142 58q-91 0 -158.5 -52t-100 -131t-32.5 -171q0 -77 32 -131z" />
    <glyph glyph-name="Ugrave" unicode="&#xd9;" horiz-adv-x="722" 
d="M530 777h-65l-100 139h108zM91 309l85 406h96l-93 -442q-8 -38 -8 -71q0 -65 44.5 -101t122.5 -36q130 0 180 102q22 46 41 137l87 411h95l-88 -424q-20 -100 -48 -154q-77 -152 -280 -152q-118 0 -184.5 60.5t-63.5 152.5q2 51 14 111z" />
    <glyph glyph-name="Uacute" unicode="&#xda;" horiz-adv-x="722" 
d="M493 777h-70l90 139h116zM91 309l85 406h96l-93 -442q-8 -38 -8 -71q0 -65 44.5 -101t122.5 -36q130 0 180 102q22 46 41 137l87 411h95l-88 -424q-20 -100 -48 -154q-77 -152 -280 -152q-118 0 -184.5 60.5t-63.5 152.5q2 51 14 111z" />
    <glyph glyph-name="Ucircumflex" unicode="&#xdb;" horiz-adv-x="722" 
d="M411 777h-85l132 138h92l69 -138h-76l-46 87zM91 309l85 406h96l-93 -442q-8 -38 -8 -71q0 -65 44.5 -101t122.5 -36q130 0 180 102q22 46 41 137l87 411h95l-88 -424q-20 -100 -48 -154q-77 -152 -280 -152q-118 0 -184.5 60.5t-63.5 152.5q2 51 14 111z" />
    <glyph glyph-name="Udieresis" unicode="&#xdc;" horiz-adv-x="722" 
d="M431 786h-90l21 102h91zM602 786h-90l21 102h91zM91 309l85 406h96l-93 -442q-8 -38 -8 -71q0 -65 44.5 -101t122.5 -36q130 0 180 102q22 46 41 137l87 411h95l-88 -424q-20 -100 -48 -154q-77 -152 -280 -152q-118 0 -184.5 60.5t-63.5 152.5q2 51 14 111z" />
    <glyph glyph-name="Yacute" unicode="&#xdd;" horiz-adv-x="639" 
d="M436 777h-70l90 139h116zM620 715h113l-344 -437l-59 -278h-94l59 282l-204 433h102l133 -293l25 -58l44 58z" />
    <glyph glyph-name="Thorn" unicode="&#xde;" horiz-adv-x="616" 
d="M25 0l150 715h96l-27 -130h187q97 0 156.5 -48t57.5 -136q-1 -53 -19 -94.5t-47.5 -68.5t-71.5 -44.5t-88 -24.5t-99 -7h-166l-34 -162h-95zM227 506l-56 -264h167q211 0 213 156q1 53 -37 80.5t-93 27.5h-194z" />
    <glyph glyph-name="germandbls" unicode="&#xdf;" horiz-adv-x="574" 
d="M380 390q75 -47 108 -101t33 -103q0 -85 -54.5 -141.5t-151.5 -52.5q-91 4 -137 56l43 60q45 -42 97 -42q50 0 82.5 30t32.5 85q0 96 -149 182l15 60q144 55 144 170q0 65 -85 65q-45 0 -86 -26t-55 -91l-114 -541h-88l120 559q16 74 77.5 122t145.5 48q51 0 87.5 -14.5
t53.5 -37t24 -42t7 -38.5q0 -20 -5 -41t-19 -51t-46.5 -60.5t-79.5 -54.5z" />
    <glyph glyph-name="agrave" unicode="&#xe0;" horiz-adv-x="538" 
d="M388 263h-3q-52 -23 -180 -35q-45 -4 -73.5 -27t-28.5 -63q0 -36 26.5 -57t69.5 -21q88 0 138 66q30 39 51 137zM482 301l-43 -202q-8 -32 32 -32l-15 -67q-29 0 -47 3t-35.5 17.5t-18.5 41.5h-2q-71 -74 -177 -74q-71 0 -115 38.5t-44 109.5q0 72 48.5 113t122.5 47
q128 11 155 18q64 18 64 69q0 74 -105 74q-119 0 -141 -95l-87 4q19 80 80 121.5t150 41.5q82 0 137 -31.5t55 -101.5q0 -31 -14 -95zM376 577h-65l-100 139h108z" />
    <glyph glyph-name="aacute" unicode="&#xe1;" horiz-adv-x="538" 
d="M388 263h-3q-52 -23 -180 -35q-45 -4 -73.5 -27t-28.5 -63q0 -36 26.5 -57t69.5 -21q88 0 138 66q30 39 51 137zM482 301l-43 -202q-8 -32 32 -32l-15 -67q-29 0 -47 3t-35.5 17.5t-18.5 41.5h-2q-71 -74 -177 -74q-71 0 -115 38.5t-44 109.5q0 72 48.5 113t122.5 47
q128 11 155 18q64 18 64 69q0 74 -105 74q-119 0 -141 -95l-87 4q19 80 80 121.5t150 41.5q82 0 137 -31.5t55 -101.5q0 -31 -14 -95zM348 577h-71l92 139h115z" />
    <glyph glyph-name="acircumflex" unicode="&#xe2;" horiz-adv-x="538" 
d="M388 263h-3q-52 -23 -180 -35q-45 -4 -73.5 -27t-28.5 -63q0 -36 26.5 -57t69.5 -21q88 0 138 66q30 39 51 137zM482 301l-43 -202q-8 -32 32 -32l-15 -67q-29 0 -47 3t-35.5 17.5t-18.5 41.5h-2q-71 -74 -177 -74q-71 0 -115 38.5t-44 109.5q0 72 48.5 113t122.5 47
q128 11 155 18q64 18 64 69q0 74 -105 74q-119 0 -141 -95l-87 4q19 80 80 121.5t150 41.5q82 0 137 -31.5t55 -101.5q0 -31 -14 -95zM263 577h-85l132 138h92l69 -138h-76l-46 87z" />
    <glyph glyph-name="atilde" unicode="&#xe3;" horiz-adv-x="538" 
d="M388 263h-3q-52 -23 -180 -35q-45 -4 -73.5 -27t-28.5 -63q0 -36 26.5 -57t69.5 -21q88 0 138 66q30 39 51 137zM482 301l-43 -202q-8 -32 32 -32l-15 -67q-29 0 -47 3t-35.5 17.5t-18.5 41.5h-2q-71 -74 -177 -74q-71 0 -115 38.5t-44 109.5q0 72 48.5 113t122.5 47
q128 11 155 18q64 18 64 69q0 74 -105 74q-119 0 -141 -95l-87 4q19 80 80 121.5t150 41.5q82 0 137 -31.5t55 -101.5q0 -31 -14 -95zM225 584h-56q29 109 99 109q23 0 74.5 -22t61.5 -22q31 0 46 40h55q-10 -48 -35 -78t-64 -30q-25 0 -75.5 22t-61.5 22q-33 0 -44 -41z
" />
    <glyph glyph-name="adieresis" unicode="&#xe4;" horiz-adv-x="538" 
d="M388 263h-3q-52 -23 -180 -35q-45 -4 -73.5 -27t-28.5 -63q0 -36 26.5 -57t69.5 -21q88 0 138 66q30 39 51 137zM482 301l-43 -202q-8 -32 32 -32l-15 -67q-29 0 -47 3t-35.5 17.5t-18.5 41.5h-2q-71 -74 -177 -74q-71 0 -115 38.5t-44 109.5q0 72 48.5 113t122.5 47
q128 11 155 18q64 18 64 69q0 74 -105 74q-119 0 -141 -95l-87 4q19 80 80 121.5t150 41.5q82 0 137 -31.5t55 -101.5q0 -31 -14 -95zM302 596h-90l21 102h91zM473 596h-90l21 102h91z" />
    <glyph glyph-name="aring" unicode="&#xe5;" horiz-adv-x="538" 
d="M388 263h-3q-52 -23 -180 -35q-45 -4 -73.5 -27t-28.5 -63q0 -36 26.5 -57t69.5 -21q88 0 138 66q30 39 51 137zM482 301l-43 -202q-8 -32 32 -32l-15 -67q-29 0 -47 3t-35.5 17.5t-18.5 41.5h-2q-71 -74 -177 -74q-71 0 -115 38.5t-44 109.5q0 72 48.5 113t122.5 47
q128 11 155 18q64 18 64 69q0 74 -105 74q-119 0 -141 -95l-87 4q19 80 80 121.5t150 41.5q82 0 137 -31.5t55 -101.5q0 -31 -14 -95zM254 628q0 43 31.5 73.5t75.5 30.5q33 0 54 -21.5t21 -53.5q0 -43 -31.5 -72.5t-74.5 -29.5q-34 0 -55 20.5t-21 52.5zM354 689
q-22 0 -39 -16t-17 -38q0 -37 39 -37q22 0 38 16t16 39q0 36 -37 36z" />
    <glyph glyph-name="ae" unicode="&#xe6;" horiz-adv-x="888" 
d="M184 -11q-71 0 -115.5 38.5t-44.5 108.5q0 71 49 112.5t123 47.5q128 11 155 18q64 18 64 69q0 74 -105 74q-119 0 -141 -95l-87 4q19 80 80 121.5t148 41.5q124 0 170 -76q32 33 75.5 53.5t90.5 21.5q102 2 153.5 -56t51.5 -165q0 -37 -7 -72h-384q-2 -26 -2 -36
q0 -64 36 -100.5t88 -36.5t92.5 27.5t59.5 79.5l85 -5q-19 -73 -85 -125q-65 -51 -152 -51q-132 0 -183 114q-71 -113 -215 -113zM767 306q5 79 -29.5 115t-90.5 36q-122 0 -168 -151h288zM396 263h-3q-52 -23 -180 -35q-45 -4 -73.5 -27t-28.5 -63q0 -36 26.5 -57t69.5 -21
q88 0 138 66q30 39 51 137z" />
    <glyph glyph-name="ccedilla" unicode="&#xe7;" horiz-adv-x="518" 
d="M129 -208q-41 0 -80 15l13 49q27 -9 64 -9q74 -1 74 34q0 25 -31 25q-26 0 -43 -4l-16 21l37 83q-109 47 -109 197q0 133 76 229.5t204 96.5q86 0 136.5 -45.5t51.5 -128.5l-86 -2q-1 48 -29.5 75.5t-76.5 27.5q-89 0 -138.5 -78t-49.5 -178q0 -65 29 -102.5t85 -37.5
q49 0 88.5 31.5t59.5 87.5l86 -5q-27 -90 -88.5 -138t-145.5 -48q-29 0 -48 4l-24 -39l1 -1q10 2 16 2q40 0 64.5 -19t24.5 -53q0 -36 -37 -63t-108 -27z" />
    <glyph glyph-name="egrave" unicode="&#xe8;" horiz-adv-x="547" 
d="M429 306q5 79 -29.5 115t-90.5 36q-64 0 -109 -40t-67 -111h296zM481 164q-20 -78 -88 -127t-151 -49q-101 0 -156 60.5t-55 148.5q0 83 34 158.5t98.5 124.5t144.5 49q102 0 153.5 -57.5t51.5 -164.5q0 -37 -7 -72h-386q-2 -26 -2 -36q0 -65 35 -101t89 -36
q52 0 92.5 27.5t61.5 79.5zM358 577h-65l-100 139h108z" />
    <glyph glyph-name="eacute" unicode="&#xe9;" horiz-adv-x="547" 
d="M429 306q5 79 -29.5 115t-90.5 36q-64 0 -109 -40t-67 -111h296zM481 164q-20 -78 -88 -127t-151 -49q-101 0 -156 60.5t-55 148.5q0 83 34 158.5t98.5 124.5t144.5 49q102 0 153.5 -57.5t51.5 -164.5q0 -37 -7 -72h-386q-2 -26 -2 -36q0 -65 35 -101t89 -36
q52 0 92.5 27.5t61.5 79.5zM367 577h-71l92 139h115z" />
    <glyph glyph-name="ecircumflex" unicode="&#xea;" horiz-adv-x="547" 
d="M429 306q5 79 -29.5 115t-90.5 36q-64 0 -109 -40t-67 -111h296zM481 164q-20 -78 -88 -127t-151 -49q-101 0 -156 60.5t-55 148.5q0 83 34 158.5t98.5 124.5t144.5 49q102 0 153.5 -57.5t51.5 -164.5q0 -37 -7 -72h-386q-2 -26 -2 -36q0 -65 35 -101t89 -36
q52 0 92.5 27.5t61.5 79.5zM272 577h-85l132 138h92l69 -138h-76l-46 87z" />
    <glyph glyph-name="edieresis" unicode="&#xeb;" horiz-adv-x="547" 
d="M429 306q5 79 -29.5 115t-90.5 36q-64 0 -109 -40t-67 -111h296zM481 164q-20 -78 -88 -127t-151 -49q-101 0 -156 60.5t-55 148.5q0 83 34 158.5t98.5 124.5t144.5 49q102 0 153.5 -57.5t51.5 -164.5q0 -37 -7 -72h-386q-2 -26 -2 -36q0 -65 35 -101t89 -36
q52 0 92.5 27.5t61.5 79.5zM300 596h-90l21 102h91zM471 596h-90l21 102h91z" />
    <glyph glyph-name="igrave" unicode="&#xec;" horiz-adv-x="222" 
d="M101 0h-86l108 518h87zM205 577h-65l-100 139h108z" />
    <glyph glyph-name="iacute" unicode="&#xed;" horiz-adv-x="222" 
d="M101 0h-86l108 518h87zM207 577h-71l92 139h115z" />
    <glyph glyph-name="icircumflex" unicode="&#xee;" horiz-adv-x="222" 
d="M101 0h-86l108 518h87zM111 577h-85l132 138h92l69 -138h-76l-46 87z" />
    <glyph glyph-name="idieresis" unicode="&#xef;" horiz-adv-x="222" 
d="M101 0h-86l108 518h87zM141 596h-90l21 102h91zM312 596h-90l21 102h91z" />
    <glyph glyph-name="eth" unicode="&#xf0;" horiz-adv-x="571" 
d="M493 725l33 -43l-92 -45q53 -66 78.5 -132.5t25.5 -161.5q0 -159 -80 -257t-209 -98q-97 0 -156 59t-59 152q0 131 81 222t192 91q79 0 136 -55h1q-19 74 -81 146l-112 -53l-33 44l108 51q-29 32 -59 56l77 22q25 -17 53 -43zM313 439q-84 0 -138 -73.5t-54 -164.5
q0 -66 35 -103t98 -37q58 0 104 41t67 95.5t21 106.5q0 62 -35 98.5t-98 36.5z" />
    <glyph glyph-name="ntilde" unicode="&#xf1;" 
d="M504 304l-65 -304h-86l67 315q11 55 11 75q0 36 -20 51t-59 15q-63 0 -125 -55q-39 -35 -60 -110q-3 -10 -62 -291h-87l109 518h81l-18 -85h2q83 96 186 96q68 0 104 -33t36 -96q0 -32 -14 -96zM243 584h-56q29 109 99 109q23 0 74.5 -22t61.5 -22q31 0 46 40h55
q-10 -48 -35 -78t-64 -30q-25 0 -75.5 22t-61.5 22q-33 0 -44 -41z" />
    <glyph glyph-name="ograve" unicode="&#xf2;" horiz-adv-x="565" 
d="M444 311q0 66 -34.5 106.5t-95.5 40.5q-86 0 -140.5 -76t-54.5 -177q0 -69 36 -107t101 -38q78 0 133 74.5t55 176.5zM319 529q52 0 91.5 -16t61.5 -39.5t35.5 -54.5t18 -56t4.5 -49q0 -82 -31 -154.5t-97.5 -122t-155.5 -49.5q-94 0 -153.5 60t-59.5 152
q0 88 32.5 161.5t99 120.5t154.5 47zM378 577h-65l-100 139h108z" />
    <glyph glyph-name="oacute" unicode="&#xf3;" horiz-adv-x="565" 
d="M444 311q0 66 -34.5 106.5t-95.5 40.5q-86 0 -140.5 -76t-54.5 -177q0 -69 36 -107t101 -38q78 0 133 74.5t55 176.5zM319 529q52 0 91.5 -16t61.5 -39.5t35.5 -54.5t18 -56t4.5 -49q0 -82 -31 -154.5t-97.5 -122t-155.5 -49.5q-94 0 -153.5 60t-59.5 152
q0 88 32.5 161.5t99 120.5t154.5 47zM368 577h-71l92 139h115z" />
    <glyph glyph-name="ocircumflex" unicode="&#xf4;" horiz-adv-x="565" 
d="M444 311q0 66 -34.5 106.5t-95.5 40.5q-86 0 -140.5 -76t-54.5 -177q0 -69 36 -107t101 -38q78 0 133 74.5t55 176.5zM319 529q52 0 91.5 -16t61.5 -39.5t35.5 -54.5t18 -56t4.5 -49q0 -82 -31 -154.5t-97.5 -122t-155.5 -49.5q-94 0 -153.5 60t-59.5 152
q0 88 32.5 161.5t99 120.5t154.5 47zM280 577h-85l132 138h92l69 -138h-76l-46 87z" />
    <glyph glyph-name="otilde" unicode="&#xf5;" horiz-adv-x="565" 
d="M444 311q0 66 -34.5 106.5t-95.5 40.5q-86 0 -140.5 -76t-54.5 -177q0 -69 36 -107t101 -38q78 0 133 74.5t55 176.5zM319 529q52 0 91.5 -16t61.5 -39.5t35.5 -54.5t18 -56t4.5 -49q0 -82 -31 -154.5t-97.5 -122t-155.5 -49.5q-94 0 -153.5 60t-59.5 152
q0 88 32.5 161.5t99 120.5t154.5 47zM239 584h-56q29 109 99 109q23 0 74.5 -22t61.5 -22q31 0 46 40h55q-10 -48 -35 -78t-64 -30q-25 0 -75.5 22t-61.5 22q-33 0 -44 -41z" />
    <glyph glyph-name="odieresis" unicode="&#xf6;" horiz-adv-x="565" 
d="M444 311q0 66 -34.5 106.5t-95.5 40.5q-86 0 -140.5 -76t-54.5 -177q0 -69 36 -107t101 -38q78 0 133 74.5t55 176.5zM319 529q52 0 91.5 -16t61.5 -39.5t35.5 -54.5t18 -56t4.5 -49q0 -82 -31 -154.5t-97.5 -122t-155.5 -49.5q-94 0 -153.5 60t-59.5 152
q0 88 32.5 161.5t99 120.5t154.5 47zM303 596h-90l21 102h91zM474 596h-90l21 102h91z" />
    <glyph glyph-name="divide" unicode="&#xf7;" horiz-adv-x="574" 
d="M363 412h-106l22 106h106zM277 0h-106l22 105h106zM414 219h-280l18 84h279z" />
    <glyph glyph-name="oslash" unicode="&#xf8;" horiz-adv-x="566" 
d="M431 380l-271 -287q34 -33 93 -33q50 0 92.5 33.5t65.5 82t31 104t-11 100.5zM406 421q-36 37 -92 37q-59 0 -105.5 -41.5t-68 -98.5t-21.5 -113q0 -42 14 -73zM494 446q36 -52 36 -132q0 -131 -78 -228.5t-204 -97.5q-85 0 -143 47l-64 -68l-34 32l67 70q-41 55 -41 131
q0 136 78 232.5t208 96.5q90 0 144 -48l62 66l35 -31z" />
    <glyph glyph-name="ugrave" unicode="&#xf9;" 
d="M348 0l19 86h-2q-80 -98 -188 -98q-66 0 -102 33.5t-36 92.5q0 37 15 106l63 298h87l-68 -317q-10 -46 -10 -72q0 -33 21.5 -50t58.5 -17q64 0 117.5 50t67.5 117l61 289h87l-109 -518h-82zM387 577h-65l-100 139h108z" />
    <glyph glyph-name="uacute" unicode="&#xfa;" 
d="M348 0l19 86h-2q-80 -98 -188 -98q-66 0 -102 33.5t-36 92.5q0 37 15 106l63 298h87l-68 -317q-10 -46 -10 -72q0 -33 21.5 -50t58.5 -17q64 0 117.5 50t67.5 117l61 289h87l-109 -518h-82zM361 577h-71l92 139h115z" />
    <glyph glyph-name="ucircumflex" unicode="&#xfb;" 
d="M348 0l19 86h-2q-80 -98 -188 -98q-66 0 -102 33.5t-36 92.5q0 37 15 106l63 298h87l-68 -317q-10 -46 -10 -72q0 -33 21.5 -50t58.5 -17q64 0 117.5 50t67.5 117l61 289h87l-109 -518h-82zM277 577h-85l132 138h92l69 -138h-76l-46 87z" />
    <glyph glyph-name="udieresis" unicode="&#xfc;" 
d="M348 0l19 86h-2q-80 -98 -188 -98q-66 0 -102 33.5t-36 92.5q0 37 15 106l63 298h87l-68 -317q-10 -46 -10 -72q0 -33 21.5 -50t58.5 -17q64 0 117.5 50t67.5 117l61 289h87l-109 -518h-82zM304 596h-90l21 102h91zM475 596h-90l21 102h91z" />
    <glyph glyph-name="yacute" unicode="&#xfd;" horiz-adv-x="491" 
d="M-31 -198l10 76q25 -11 51 -11q22 0 40.5 13t26 23t18.5 28l40 69l-89 518h88l59 -415h2l224 415h94l-344 -609q-29 -52 -66.5 -85.5t-95.5 -33.5q-32 0 -58 12zM326 577h-71l92 139h115z" />
    <glyph glyph-name="thorn" unicode="&#xfe;" horiz-adv-x="572" 
d="M-29 -198l191 913h86l-59 -265h1q68 79 161 79q86 0 136 -56.5t50 -153.5q0 -136 -80.5 -233.5t-189.5 -97.5q-51 0 -92.5 23t-60.5 70h-1l-57 -279h-85zM451 319q0 65 -32 101t-90 36q-78 0 -130.5 -79t-52.5 -173q0 -65 28.5 -103.5t88.5 -38.5q83 0 135.5 80.5
t52.5 176.5z" />
    <glyph glyph-name="ydieresis" unicode="&#xff;" horiz-adv-x="491" 
d="M-31 -198l10 76q25 -11 51 -11q22 0 40.5 13t26 23t18.5 28l40 69l-89 518h88l59 -415h2l224 415h94l-344 -609q-29 -52 -66.5 -85.5t-95.5 -33.5q-32 0 -58 12zM266 596h-90l21 102h91zM437 596h-90l21 102h91z" />
    <glyph glyph-name="Amacron" unicode="&#x100;" horiz-adv-x="667" 
d="M517 0l-34 210h-296l-121 -210h-103l416 715h110l123 -715h-95zM431 556l-10 75h-2l-40 -75l-152 -269h245zM571 797h-258l15 68h258z" />
    <glyph glyph-name="amacron" unicode="&#x101;" horiz-adv-x="538" 
d="M388 263h-3q-52 -23 -180 -35q-45 -4 -73.5 -27t-28.5 -63q0 -36 26.5 -57t69.5 -21q88 0 138 66q30 39 51 137zM482 301l-43 -202q-8 -32 32 -32l-15 -67q-29 0 -47 3t-35.5 17.5t-18.5 41.5h-2q-71 -74 -177 -74q-71 0 -115 38.5t-44 109.5q0 72 48.5 113t122.5 47
q128 11 155 18q64 18 64 69q0 74 -105 74q-119 0 -141 -95l-87 4q19 80 80 121.5t150 41.5q82 0 137 -31.5t55 -101.5q0 -31 -14 -95zM469 608h-258l15 68h258z" />
    <glyph glyph-name="Abreve" unicode="&#x102;" horiz-adv-x="667" 
d="M517 0l-34 210h-296l-121 -210h-103l416 715h110l123 -715h-95zM431 556l-10 75h-2l-40 -75l-152 -269h245zM443 777q-62 0 -96 34t-33 98h61q-1 -37 17.5 -55.5t57.5 -18.5q77 0 97 74h69q-35 -132 -173 -132z" />
    <glyph glyph-name="abreve" unicode="&#x103;" horiz-adv-x="538" 
d="M388 263h-3q-52 -23 -180 -35q-45 -4 -73.5 -27t-28.5 -63q0 -36 26.5 -57t69.5 -21q88 0 138 66q30 39 51 137zM482 301l-43 -202q-8 -32 32 -32l-15 -67q-29 0 -47 3t-35.5 17.5t-18.5 41.5h-2q-71 -74 -177 -74q-71 0 -115 38.5t-44 109.5q0 72 48.5 113t122.5 47
q128 11 155 18q64 18 64 69q0 74 -105 74q-119 0 -141 -95l-87 4q19 80 80 121.5t150 41.5q82 0 137 -31.5t55 -101.5q0 -31 -14 -95zM329 577q-63 0 -96.5 34t-31.5 98h61q-1 -38 17 -56t58 -18q77 0 97 74h69q-17 -65 -62 -98.5t-112 -33.5z" />
    <glyph glyph-name="Aogonek" unicode="&#x104;" horiz-adv-x="667" 
d="M438 -120q0 70 78 121l-33 209h-296l-121 -210h-103l416 715h110l123 -715q-34 -12 -64.5 -40.5t-30.5 -57.5q0 -32 40 -32l33 4l-5 -63q-26 -6 -58 -6q-39 0 -64 21t-25 54zM431 556l-10 75h-2l-40 -75l-152 -269h245z" />
    <glyph glyph-name="aogonek" unicode="&#x105;" horiz-adv-x="538" 
d="M282 -120q0 78 98 134q-24 15 -25 48h-2q-71 -74 -177 -74q-71 0 -115 38.5t-44 109.5q0 72 48.5 113t122.5 47q128 11 155 18q64 18 64 69q0 74 -105 74q-119 0 -141 -95l-87 4q19 80 80 121.5t150 41.5q82 0 137 -31.5t55 -101.5q0 -31 -14 -95l-43 -202q-8 -32 32 -32
l-15 -67q-34 -12 -64.5 -40.5t-30.5 -57.5q0 -32 40 -32l33 4l-5 -63q-25 -6 -58 -6q-39 0 -64 21t-25 54zM388 263h-3q-52 -23 -180 -35q-45 -4 -73.5 -27t-28.5 -63q0 -36 26.5 -57t69.5 -21q88 0 138 66q30 39 51 137z" />
    <glyph glyph-name="Cacute" unicode="&#x106;" horiz-adv-x="722" 
d="M584 246l95 -6q-36 -123 -118.5 -188.5t-201.5 -65.5q-139 0 -217 81t-78 228q0 115 45 213t134 159.5t204 61.5q117 0 190 -62.5t79 -173.5l-92 -4q-7 79 -55.5 120t-124.5 41q-92 0 -159 -54.5t-97 -133.5t-30 -168q0 -112 52 -170.5t151 -58.5q81 0 139 47.5t84 133.5
zM486 777h-70l90 139h116z" />
    <glyph glyph-name="cacute" unicode="&#x107;" horiz-adv-x="518" 
d="M38 202q0 133 76 230t204 97q86 0 136.5 -45.5t51.5 -128.5l-86 -2q-1 48 -29.5 75.5t-76.5 27.5q-89 0 -138.5 -78t-49.5 -178q0 -65 29 -102.5t85 -37.5q49 0 88.5 31.5t59.5 87.5l86 -5q-27 -90 -88.5 -138t-145.5 -48q-95 0 -148.5 56.5t-53.5 157.5zM362 577h-71
l92 139h115z" />
    <glyph glyph-name="Ccaron" unicode="&#x10c;" horiz-adv-x="722" 
d="M584 246l95 -6q-36 -123 -118.5 -188.5t-201.5 -65.5q-139 0 -217 81t-78 228q0 115 45 213t134 159.5t204 61.5q117 0 190 -62.5t79 -173.5l-92 -4q-7 79 -55.5 120t-124.5 41q-92 0 -159 -54.5t-97 -133.5t-30 -168q0 -112 52 -170.5t151 -58.5q81 0 139 47.5t84 133.5
zM555 915h85l-132 -138h-92l-69 138h75l45 -85z" />
    <glyph glyph-name="ccaron" unicode="&#x10d;" horiz-adv-x="518" 
d="M38 202q0 133 76 230t204 97q86 0 136.5 -45.5t51.5 -128.5l-86 -2q-1 48 -29.5 75.5t-76.5 27.5q-89 0 -138.5 -78t-49.5 -178q0 -65 29 -102.5t85 -37.5q49 0 88.5 31.5t59.5 87.5l86 -5q-27 -90 -88.5 -138t-145.5 -48q-95 0 -148.5 56.5t-53.5 157.5zM429 715h86
l-132 -138h-92l-69 138h76l44 -86z" />
    <glyph glyph-name="Dcaron" unicode="&#x10e;" horiz-adv-x="713" 
d="M611 155q-108 -155 -333 -155h-253l151 715h233q147 0 216.5 -77.5t69.5 -205.5q0 -157 -84 -277zM137 81h121q170 0 255.5 93.5t85.5 254.5q0 108 -52 156.5t-155 48.5h-139zM506 915h85l-132 -138h-92l-69 138h75l45 -85z" />
    <glyph glyph-name="dcaron" unicode="&#x10f;" horiz-adv-x="615" 
d="M235 61q53 0 93.5 30t61.5 74t31 85.5t9 72.5q-2 60 -34 96.5t-87 36.5q-68 0 -120 -60q-29 -33 -47 -89t-19.5 -111t27 -95t85.5 -40zM516 715h86l-150 -715h-81l17 74h-3q-71 -86 -168 -86q-86 0 -134 56.5t-48 155.5q0 126 76.5 227.5t193.5 101.5q51 0 93 -22.5
t60 -69.5h1zM729 715l-18 -85q-14 -74 -85 -102l-8 33q43 20 49 63h-36l19 91h79z" />
    <glyph glyph-name="Dcroat" unicode="&#x110;" horiz-adv-x="713" 
d="M30 0l70 332h-72l14 67h72q18 83 67 316h232q132 0 209 -70.5t77 -205.5q0 -194 -108 -316.5t-296 -122.5h-265zM258 634q-16 -79 -50 -235h199l-14 -67h-199q-17 -84 -53 -252h139q145 0 234 94t89 255q0 106 -49.5 155.5t-156.5 49.5h-139z" />
    <glyph glyph-name="dcroat" unicode="&#x111;" horiz-adv-x="571" 
d="M513 715h86l-15 -73h63l-14 -66h-63l-121 -576h-81l17 74h-3q-71 -86 -168 -86q-86 0 -134 56.5t-48 155.5q0 126 76.5 227.5t193.5 101.5q51 0 93 -22.5t60 -69.5h1l28 139h-136l14 66h136zM232 61q53 0 93.5 30t61.5 74t31 85.5t9 72.5q-2 60 -34 96.5t-87 36.5
q-68 0 -120 -60q-29 -33 -47 -89t-19.5 -111t27 -95t85.5 -40z" />
    <glyph glyph-name="Emacron" unicode="&#x112;" horiz-adv-x="639" 
d="M548 0h-522l151 715h504l-17 -81h-409l-47 -224h390l-16 -81h-391l-52 -248h426zM571 797h-258l15 68h258z" />
    <glyph glyph-name="emacron" unicode="&#x113;" horiz-adv-x="547" 
d="M429 306q5 79 -29.5 115t-90.5 36q-64 0 -109 -40t-67 -111h296zM481 164q-20 -78 -88 -127t-151 -49q-101 0 -156 60.5t-55 148.5q0 83 34 158.5t98.5 124.5t144.5 49q102 0 153.5 -57.5t51.5 -164.5q0 -37 -7 -72h-386q-2 -26 -2 -36q0 -65 35 -101t89 -36
q52 0 92.5 27.5t61.5 79.5zM457 608h-258l15 68h258z" />
    <glyph glyph-name="Edotaccent" unicode="&#x116;" horiz-adv-x="639" 
d="M548 0h-522l151 715h504l-17 -81h-409l-47 -224h390l-16 -81h-391l-52 -248h426zM488 786h-99l22 107h99z" />
    <glyph glyph-name="edotaccent" unicode="&#x117;" horiz-adv-x="547" 
d="M429 306q5 79 -29.5 115t-90.5 36q-64 0 -109 -40t-67 -111h296zM481 164q-20 -78 -88 -127t-151 -49q-101 0 -156 60.5t-55 148.5q0 83 34 158.5t98.5 124.5t144.5 49q102 0 153.5 -57.5t51.5 -164.5q0 -37 -7 -72h-386q-2 -26 -2 -36q0 -65 35 -101t89 -36
q52 0 92.5 27.5t61.5 79.5zM376 593h-99l22 107h99z" />
    <glyph glyph-name="Eogonek" unicode="&#x118;" horiz-adv-x="639" 
d="M374 -120q0 69 76 120h-424l151 715h504l-17 -81h-409l-47 -224h390l-16 -81h-391l-52 -248h426l-17 -81q-34 -12 -64.5 -40.5t-30.5 -57.5q0 -32 40 -32l33 4l-5 -63q-25 -6 -58 -6q-39 0 -64 21t-25 54z" />
    <glyph glyph-name="eogonek" unicode="&#x119;" horiz-adv-x="547" 
d="M145 -120q0 61 62 110q-85 11 -130.5 69.5t-45.5 137.5q0 83 34 158.5t98.5 124.5t144.5 49q102 0 153.5 -57.5t51.5 -164.5q0 -37 -7 -72h-386q-2 -26 -2 -36q0 -65 35 -101t89 -36q52 0 92.5 27.5t61.5 79.5l85 -5q-15 -60 -60.5 -104t-106.5 -62q-33 -12 -61.5 -40
t-28.5 -56q0 -32 40 -32l33 4l-5 -63q-26 -6 -58 -6q-39 0 -64 21t-25 54zM429 306q5 79 -29.5 115t-90.5 36q-64 0 -109 -40t-67 -111h296z" />
    <glyph glyph-name="Ecaron" unicode="&#x11a;" horiz-adv-x="639" 
d="M548 0h-522l151 715h504l-17 -81h-409l-47 -224h390l-16 -81h-391l-52 -248h426zM530 915h85l-132 -138h-92l-69 138h75l45 -85z" />
    <glyph glyph-name="ecaron" unicode="&#x11b;" horiz-adv-x="547" 
d="M429 306q5 79 -29.5 115t-90.5 36q-64 0 -109 -40t-67 -111h296zM481 164q-20 -78 -88 -127t-151 -49q-101 0 -156 60.5t-55 148.5q0 83 34 158.5t98.5 124.5t144.5 49q102 0 153.5 -57.5t51.5 -164.5q0 -37 -7 -72h-386q-2 -26 -2 -36q0 -65 35 -101t89 -36
q52 0 92.5 27.5t61.5 79.5zM421 715h86l-132 -138h-92l-69 138h76l44 -86z" />
    <glyph glyph-name="Gbreve" unicode="&#x11e;" horiz-adv-x="769" 
d="M392 289l16 80h312l-19 -106q-23 -116 -113 -196.5t-227 -80.5q-43 0 -82.5 8t-81.5 31t-71 59.5t-45.5 99t-11.5 144.5q12 185 123.5 293t267.5 108q137 0 206.5 -67.5t74.5 -162.5q-61 -4 -94 -5q-7 76 -58.5 115.5t-130.5 39.5q-134 0 -215 -103t-81 -256
q0 -224 203 -224q114 0 177 67.5t72 155.5h-222zM471 777q-62 0 -96 34t-33 98h61q-1 -37 17.5 -55.5t57.5 -18.5q77 0 97 74h69q-35 -132 -173 -132z" />
    <glyph glyph-name="gbreve" unicode="&#x11f;" horiz-adv-x="565" 
d="M133 288q-12 -61 -7.5 -102.5t24.5 -67t43.5 -36.5t48.5 -11q41 0 86 28.5t71 92.5q28 67 28 127q0 63 -34 100t-93 37q-30 0 -60.5 -14.5t-61.5 -54t-45 -99.5zM478 518h80l-109 -513q-24 -112 -91 -163t-157 -51q-94 0 -145 42.5t-53 118.5l87 -4q2 -83 108 -83
q67 0 103 31t56 96l24 80h-3q-61 -74 -154 -74q-32 0 -62.5 11t-60 34.5t-48 68t-18.5 104.5q0 76 33.5 148t95 118.5t135.5 46.5q55 0 97 -27t64 -74h2zM340 577q-63 0 -96.5 34t-31.5 98h61q-1 -38 17 -56t58 -18q77 0 97 74h69q-17 -65 -62 -98.5t-112 -33.5z" />
    <glyph glyph-name="Gcommaaccent" unicode="&#x122;" horiz-adv-x="769" 
d="M392 289l16 80h312l-19 -106q-23 -116 -113 -196.5t-227 -80.5q-43 0 -82.5 8t-81.5 31t-71 59.5t-45.5 99t-11.5 144.5q12 185 123.5 293t267.5 108q137 0 206.5 -67.5t74.5 -162.5q-61 -4 -94 -5q-7 76 -58.5 115.5t-130.5 39.5q-134 0 -215 -103t-81 -256
q0 -224 203 -224q114 0 177 67.5t72 155.5h-222zM403 -61l-18 -85q-15 -76 -94 -93l-10 34q50 12 55 54h-45l19 90h93z" />
    <glyph glyph-name="gcommaaccent" unicode="&#x123;" horiz-adv-x="565" 
d="M133 288q-12 -61 -7.5 -102.5t24.5 -67t43.5 -36.5t48.5 -11q41 0 86 28.5t71 92.5q28 67 28 127q0 63 -34 100t-93 37q-30 0 -60.5 -14.5t-61.5 -54t-45 -99.5zM478 518h80l-109 -513q-24 -112 -91 -163t-157 -51q-94 0 -145 42.5t-53 118.5l87 -4q2 -83 108 -83
q67 0 103 31t56 96l24 80h-3q-61 -74 -154 -74q-32 0 -62.5 11t-60 34.5t-48 68t-18.5 104.5q0 76 33.5 148t95 118.5t135.5 46.5q55 0 97 -27t64 -74h2zM289 576l18 85q15 76 94 93l10 -34q-50 -12 -55 -54h45l-19 -90h-93z" />
    <glyph glyph-name="Imacron" unicode="&#x12a;" horiz-adv-x="269" 
d="M128 0h-96l150 715h95zM366 797h-258l15 68h258z" />
    <glyph glyph-name="imacron" unicode="&#x12b;" horiz-adv-x="222" 
d="M101 0h-86l108 518h87zM306 608h-258l15 68h258z" />
    <glyph glyph-name="Iogonek" unicode="&#x12e;" horiz-adv-x="269" 
d="M-46 -120q0 70 78 121l150 714h95l-149 -715q-34 -12 -64.5 -40.5t-30.5 -57.5q0 -32 40 -32l33 4l-5 -63q-26 -6 -58 -6q-39 0 -64 21t-25 54z" />
    <glyph glyph-name="iogonek" unicode="&#x12f;" horiz-adv-x="222" 
d="M-73 -120q0 75 90 129l106 509h87l-109 -518q-34 -12 -64.5 -40.5t-30.5 -57.5q0 -32 40 -32l33 4l-5 -63q-26 -6 -58 -6q-39 0 -64 21t-25 54zM230 613h-87l21 102h87z" />
    <glyph glyph-name="Idotaccent" unicode="&#x130;" horiz-adv-x="269" 
d="M128 0h-96l150 715h95zM291 786h-99l22 107h99z" />
    <glyph glyph-name="dotlessi" unicode="&#x131;" horiz-adv-x="222" 
d="M101 0h-86l108 518h87z" />
    <glyph glyph-name="Kcommaaccent" unicode="&#x136;" horiz-adv-x="667" 
d="M388 422l236 -422h-106l-201 362l-146 -126l-50 -236h-95l151 715h94l-74 -352h3l400 352h126zM357 -61l-18 -85q-15 -76 -94 -93l-10 34q50 12 55 54h-45l19 90h93z" />
    <glyph glyph-name="kcommaaccent" unicode="&#x137;" horiz-adv-x="491" 
d="M443 0h-94l-106 270l-104 -92l-38 -178h-86l151 715h85l-92 -432l1 -1l260 236h114l-223 -193zM263 -61l-18 -85q-15 -76 -94 -93l-10 34q50 12 55 54h-45l19 90h93z" />
    <glyph glyph-name="Lacute" unicode="&#x139;" 
d="M494 0h-470l149 715h96l-132 -634h374zM262 777h-70l90 139h116z" />
    <glyph glyph-name="lacute" unicode="&#x13a;" horiz-adv-x="222" 
d="M104 0h-87l150 715h86zM250 777h-70l90 139h116z" />
    <glyph glyph-name="Lcommaaccent" unicode="&#x13b;" 
d="M494 0h-470l149 715h96l-132 -634h374zM310 -61l-18 -85q-15 -76 -94 -93l-10 34q50 12 55 54h-45l19 90h93z" />
    <glyph glyph-name="lcommaaccent" unicode="&#x13c;" horiz-adv-x="222" 
d="M104 0h-87l150 715h86zM98 -61l-18 -85q-15 -76 -94 -93l-10 34q50 12 55 54h-45l19 90h93z" />
    <glyph glyph-name="Lcaron" unicode="&#x13d;" 
d="M494 0h-470l149 715h96l-132 -634h374zM431 762l-18 -85q-14 -74 -85 -102l-8 33q43 20 49 63h-36l19 91h79z" />
    <glyph glyph-name="lcaron" unicode="&#x13e;" horiz-adv-x="266" 
d="M104 0h-87l150 715h86zM380 715l-18 -85q-14 -74 -85 -102l-8 33q43 20 49 63h-36l19 91h79z" />
    <glyph glyph-name="Lslash" unicode="&#x141;" 
d="M68 210l-91 -58l16 73l90 58l90 432h96l-75 -361l250 160l-16 -74l-249 -159l-42 -200h374l-17 -81h-470z" />
    <glyph glyph-name="lslash" unicode="&#x142;" horiz-adv-x="222" 
d="M105 449l56 266h86l-41 -199l85 58l-15 -70l-85 -57l-93 -447h-87l80 380l-82 -55l15 69z" />
    <glyph glyph-name="Nacute" unicode="&#x143;" horiz-adv-x="722" 
d="M530 115l120 600h92l-150 -715h-98l-202 474l-51 122h-1l-120 -596h-92l150 715h98l209 -484l44 -116h1zM488 777h-70l90 139h116z" />
    <glyph glyph-name="nacute" unicode="&#x144;" 
d="M504 304l-65 -304h-86l67 315q11 55 11 75q0 36 -20 51t-59 15q-63 0 -125 -55q-39 -35 -60 -110q-3 -10 -62 -291h-87l109 518h81l-18 -85h2q83 96 186 96q68 0 104 -33t36 -96q0 -32 -14 -96zM381 577h-71l92 139h115z" />
    <glyph glyph-name="Ncommaaccent" unicode="&#x145;" horiz-adv-x="722" 
d="M530 115l120 600h92l-150 -715h-98l-202 474l-51 122h-1l-120 -596h-92l150 715h98l209 -484l44 -116h1zM365 -61l-18 -85q-15 -76 -94 -93l-10 34q50 12 55 54h-45l19 90h93z" />
    <glyph glyph-name="ncommaaccent" unicode="&#x146;" 
d="M504 304l-65 -304h-86l67 315q11 55 11 75q0 36 -20 51t-59 15q-63 0 -125 -55q-39 -35 -60 -110q-3 -10 -62 -291h-87l109 518h81l-18 -85h2q83 96 186 96q68 0 104 -33t36 -96q0 -32 -14 -96zM271 -61l-18 -85q-15 -76 -94 -93l-10 34q50 12 55 54h-45l19 90h93z" />
    <glyph glyph-name="Ncaron" unicode="&#x147;" horiz-adv-x="722" 
d="M530 115l120 600h92l-150 -715h-98l-202 474l-51 122h-1l-120 -596h-92l150 715h98l209 -484l44 -116h1zM558 915h85l-132 -138h-92l-69 138h75l45 -85z" />
    <glyph glyph-name="ncaron" unicode="&#x148;" 
d="M504 304l-65 -304h-86l67 315q11 55 11 75q0 36 -20 51t-59 15q-63 0 -125 -55q-39 -35 -60 -110q-3 -10 -62 -291h-87l109 518h81l-18 -85h2q83 96 186 96q68 0 104 -33t36 -96q0 -32 -14 -96zM437 715h86l-132 -138h-92l-69 138h76l44 -86z" />
    <glyph glyph-name="Omacron" unicode="&#x14c;" horiz-adv-x="769" 
d="M450 729q70 0 125.5 -23.5t87 -58.5t52 -80t27.5 -83t7 -73q-1 -78 -26.5 -152.5t-72.5 -136t-122 -99t-167 -37.5q-132 0 -214 86t-82 220q0 187 108.5 312t276.5 125zM655 415q0 54 -14 97t-35.5 68t-50 41t-54 22t-51.5 6q-91 0 -158.5 -51.5t-100 -131t-32.5 -171.5
q0 -107 60 -168.5t152 -61.5q61 0 111 24.5t81 62.5t52.5 86t30.5 92.5t9 84.5zM603 797h-258l15 68h258z" />
    <glyph glyph-name="omacron" unicode="&#x14d;" horiz-adv-x="565" 
d="M444 311q0 66 -34.5 106.5t-95.5 40.5q-86 0 -140.5 -76t-54.5 -177q0 -69 36 -107t101 -38q78 0 133 74.5t55 176.5zM319 529q52 0 91.5 -16t61.5 -39.5t35.5 -54.5t18 -56t4.5 -49q0 -82 -31 -154.5t-97.5 -122t-155.5 -49.5q-94 0 -153.5 60t-59.5 152
q0 88 32.5 161.5t99 120.5t154.5 47zM469 608h-258l15 68h258z" />
    <glyph glyph-name="Ohungarumlaut" unicode="&#x150;" horiz-adv-x="769" 
d="M450 729q70 0 125.5 -23.5t87 -58.5t52 -80t27.5 -83t7 -73q-1 -78 -26.5 -152.5t-72.5 -136t-122 -99t-167 -37.5q-132 0 -214 86t-82 220q0 187 108.5 312t276.5 125zM655 415q0 54 -14 97t-35.5 68t-50 41t-54 22t-51.5 6q-91 0 -158.5 -51.5t-100 -131t-32.5 -171.5
q0 -107 60 -168.5t152 -61.5q61 0 111 24.5t81 62.5t52.5 86t30.5 92.5t9 84.5zM421 777h-71l92 138h113zM585 777h-70l91 138h114z" />
    <glyph glyph-name="ohungarumlaut" unicode="&#x151;" horiz-adv-x="565" 
d="M444 311q0 66 -34.5 106.5t-95.5 40.5q-86 0 -140.5 -76t-54.5 -177q0 -69 36 -107t101 -38q78 0 133 74.5t55 176.5zM319 529q52 0 91.5 -16t61.5 -39.5t35.5 -54.5t18 -56t4.5 -49q0 -82 -31 -154.5t-97.5 -122t-155.5 -49.5q-94 0 -153.5 60t-59.5 152
q0 88 32.5 161.5t99 120.5t154.5 47zM299 577h-71l92 138h113zM443 577h-70l91 138h114z" />
    <glyph glyph-name="OE" unicode="&#x152;" horiz-adv-x="1098" 
d="M548 272q40 183 40 244q0 56 -45.5 94.5t-110.5 38.5q-85 0 -149.5 -55.5t-94 -134.5t-29.5 -163q0 -107 47 -169t133 -62q162 0 209 207zM1079 715l-17 -81h-344l-48 -227h330l-16 -80h-330l-52 -247h365l-16 -80h-459l12 55q-66 -70 -172 -70q-126 0 -196.5 84.5
t-70.5 224.5q0 185 107.5 310t258.5 125q59 0 111 -24.5t84 -72.5l17 83h436z" />
    <glyph glyph-name="oe" unicode="&#x153;" horiz-adv-x="921" 
d="M766 169l89 -4q-32 -84 -97.5 -130.5t-148.5 -46.5q-131 0 -177 101q-73 -101 -194 -101q-91 0 -148.5 54.5t-57.5 155.5q0 135 79.5 233t201.5 98q59 0 105.5 -26t72.5 -73q77 99 200 99q94 0 144.5 -56.5t50.5 -152.5q0 -44 -10 -86h-377q-2 -9 -4 -29q0 -143 122 -143
q47 0 87.5 29.5t61.5 77.5zM116 203q0 -66 32.5 -104t91.5 -38q60 0 105 45t64.5 105.5t19.5 122.5q0 58 -32.5 91t-87.5 33q-59 0 -105 -42t-67 -98.5t-21 -114.5zM684 458q-60 0 -105 -40t-67 -112h287q2 20 2 26q0 57 -31 91.5t-86 34.5z" />
    <glyph glyph-name="Racute" unicode="&#x154;" horiz-adv-x="704" 
d="M204 390h228q82 0 126.5 41t44.5 99q0 105 -124 105h-223zM177 715h313q114 0 161.5 -51.5t47.5 -126.5q0 -72 -55 -131.5t-149 -73.5v-1q55 -18 67 -81q11 -56 33.5 -138.5t43.5 -111.5h-107q-29 38 -50 193q-8 60 -33.5 89t-71.5 29h-190l-65 -311h-95zM445 777h-70
l90 139h116z" />
    <glyph glyph-name="racute" unicode="&#x155;" horiz-adv-x="333" 
d="M14 0l108 518h80l-24 -109h3q64 113 162 119q27 3 55 -8l-27 -85q-15 7 -38 7q-44 0 -78 -19.5t-55 -56t-33 -70t-22 -78.5l-47 -218h-84zM302 577h-71l92 139h115z" />
    <glyph glyph-name="Rcommaaccent" unicode="&#x156;" horiz-adv-x="704" 
d="M204 390h228q82 0 126.5 41t44.5 99q0 105 -124 105h-223zM177 715h313q114 0 161.5 -51.5t47.5 -126.5q0 -72 -55 -131.5t-149 -73.5v-1q55 -18 67 -81q11 -56 33.5 -138.5t43.5 -111.5h-107q-29 38 -50 193q-8 60 -33.5 89t-71.5 29h-190l-65 -311h-95zM368 -61
l-18 -85q-15 -76 -94 -93l-10 34q50 12 55 54h-45l19 90h93z" />
    <glyph glyph-name="rcommaaccent" unicode="&#x157;" horiz-adv-x="333" 
d="M14 0l108 518h80l-24 -109h3q64 113 162 119q27 3 55 -8l-27 -85q-15 7 -38 7q-44 0 -78 -19.5t-55 -56t-33 -70t-22 -78.5l-47 -218h-84zM94 -61l-18 -85q-15 -76 -94 -93l-10 34q50 12 55 54h-45l19 90h93z" />
    <glyph glyph-name="Rcaron" unicode="&#x158;" horiz-adv-x="704" 
d="M204 390h228q82 0 126.5 41t44.5 99q0 105 -124 105h-223zM177 715h313q114 0 161.5 -51.5t47.5 -126.5q0 -72 -55 -131.5t-149 -73.5v-1q55 -18 67 -81q11 -56 33.5 -138.5t43.5 -111.5h-107q-29 38 -50 193q-8 60 -33.5 89t-71.5 29h-190l-65 -311h-95zM522 915h85
l-132 -138h-92l-69 138h75l45 -85z" />
    <glyph glyph-name="rcaron" unicode="&#x159;" horiz-adv-x="333" 
d="M14 0l108 518h80l-24 -109h3q64 113 162 119q27 3 55 -8l-27 -85q-15 7 -38 7q-44 0 -78 -19.5t-55 -56t-33 -70t-22 -78.5l-47 -218h-84zM364 715h86l-132 -138h-92l-69 138h76l44 -86z" />
    <glyph glyph-name="Sacute" unicode="&#x15a;" horiz-adv-x="658" 
d="M322 65q94 0 137 39t43 91q0 75 -91 108q-98 36 -162 64q-122 52 -122 166q0 89 73 142.5t178 53.5q216 0 259 -172q5 -20 5 -47l-93 -6q1 72 -42.5 108.5t-126.5 36.5q-64 0 -112.5 -28t-48.5 -84q0 -71 90 -103q27 -11 85 -32.5t71 -26.5q133 -51 133 -176
q0 -96 -81.5 -154.5t-195.5 -58.5q-128 0 -203 57.5t-76 179.5l95 13v-9q0 -11 5 -43q9 -56 55 -87.5t125 -31.5zM426 777h-70l90 139h116z" />
    <glyph glyph-name="sacute" unicode="&#x15b;" horiz-adv-x="491" 
d="M270 459q-50 0 -76.5 -20t-26.5 -47q0 -22 15 -36.5t43 -28.5q23 -11 121 -55q92 -41 92 -125q0 -72 -60 -115.5t-151 -43.5q-96 0 -154.5 44t-56.5 137l88 5q-6 -57 29.5 -85.5t97.5 -28.5q53 0 86 20.5t33 57.5q0 40 -45 62q-16 8 -37.5 18t-47.5 22t-38 18
q-47 22 -73 50.5t-26 71.5q0 70 56.5 109.5t132.5 39.5q88 0 143 -42t55 -122l-85 -3q0 46 -30 71.5t-85 25.5zM319 577h-71l92 139h115z" />
    <glyph glyph-name="Scedilla" unicode="&#x15e;" horiz-adv-x="658" 
d="M260 -209q-41 0 -80 15l13 49q27 -9 64 -9q74 -1 74 34q0 25 -31 25q-26 0 -43 -4l-16 21l29 67q-106 10 -166.5 67.5t-61.5 166.5l95 13v-9q0 -11 5 -43q9 -56 55 -87.5t125 -31.5q94 0 137 39t43 91q0 75 -91 108q-98 36 -162 64q-122 52 -122 166q0 89 73 142.5
t178 53.5q216 0 259 -172q5 -20 5 -47l-93 -6q1 72 -42.5 108.5t-126.5 36.5q-64 0 -112.5 -28t-48.5 -84q0 -71 90 -103q27 -11 85 -32.5t71 -26.5q133 -51 133 -176q0 -96 -81.5 -154.5t-195.5 -58.5l-22 -34l1 -1q10 2 16 2q40 0 64.5 -19t24.5 -53q0 -36 -37 -63
t-108 -27z" />
    <glyph glyph-name="scedilla" unicode="&#x15f;" horiz-adv-x="491" 
d="M167 -209q-41 0 -80 15l13 49q27 -9 64 -9q74 -1 74 34q0 25 -31 25q-26 0 -43 -4l-16 21l31 69q-76 10 -120.5 53.5t-42.5 124.5l88 5q-6 -57 29.5 -85.5t97.5 -28.5q53 0 86 20.5t33 57.5q0 40 -45 62q-16 8 -37.5 18t-47.5 22t-38 18q-47 22 -73 50.5t-26 71.5
q0 70 56.5 109.5t132.5 39.5q88 0 143 -42t55 -122l-85 -3q0 46 -30 71.5t-85 25.5q-50 0 -76.5 -20t-26.5 -47q0 -22 15 -36.5t43 -28.5q23 -11 121 -55q92 -41 92 -125q0 -72 -59.5 -115t-149.5 -44l-23 -36l1 -1q10 2 16 2q40 0 64.5 -19t24.5 -53q0 -36 -37 -63
t-108 -27z" />
    <glyph glyph-name="Scaron" unicode="&#x160;" horiz-adv-x="658" 
d="M503 915h85l-132 -138h-92l-69 138h75l45 -85zM322 65q94 0 137 39t43 91q0 75 -91 108q-98 36 -162 64q-122 52 -122 166q0 89 73 142.5t178 53.5q216 0 259 -172q5 -20 5 -47l-93 -6q1 72 -42.5 108.5t-126.5 36.5q-64 0 -112.5 -28t-48.5 -84q0 -71 90 -103
q27 -11 85 -32.5t71 -26.5q133 -51 133 -176q0 -96 -81.5 -154.5t-195.5 -58.5q-128 0 -203 57.5t-76 179.5l95 13v-9q0 -11 5 -43q9 -56 55 -87.5t125 -31.5z" />
    <glyph glyph-name="scaron" unicode="&#x161;" horiz-adv-x="491" 
d="M270 459q-50 0 -76.5 -20t-26.5 -47q0 -22 15 -36.5t43 -28.5q23 -11 121 -55q92 -41 92 -125q0 -72 -60 -115.5t-151 -43.5q-96 0 -154.5 44t-56.5 137l88 5q-6 -57 29.5 -85.5t97.5 -28.5q53 0 86 20.5t33 57.5q0 40 -45 62q-16 8 -37.5 18t-47.5 22t-38 18
q-47 22 -73 50.5t-26 71.5q0 70 56.5 109.5t132.5 39.5q88 0 143 -42t55 -122l-85 -3q0 46 -30 71.5t-85 25.5zM389 715h86l-132 -138h-92l-69 138h76l44 -86z" />
    <glyph glyph-name="Tcedilla" unicode="&#x162;" horiz-adv-x="593" 
d="M201 -209q-41 0 -80 15l13 49q27 -9 64 -9q74 -1 74 34q0 25 -31 25q-26 0 -43 -4l-16 21l35 78h-20l133 634h-237l17 81h569l-17 -81h-237l-133 -634h-21l-31 -48l1 -1q10 2 16 2q40 0 64.5 -19t24.5 -53q0 -36 -37 -63t-108 -27z" />
    <glyph glyph-name="tcedilla" unicode="&#x163;" horiz-adv-x="296" 
d="M85 -209q-41 0 -80 15l13 49q27 -9 64 -9q74 -1 74 34q0 25 -31 25q-26 0 -43 -4l-16 21l34 78q-49 15 -49 75q0 12 9 60l66 311h-89l15 72h89l29 140l93 30l-36 -170h95l-15 -72h-95l-62 -295q-8 -40 -8 -50q0 -48 101 -27l-17 -74q-54 -7 -76 -7l-26 -41l1 -1
q10 2 16 2q40 0 64.5 -19t24.5 -53q0 -36 -37 -63t-108 -27z" />
    <glyph glyph-name="Tcaron" unicode="&#x164;" horiz-adv-x="593" 
d="M292 0h-95l133 634h-237l17 81h569l-17 -81h-237zM501 915h85l-132 -138h-92l-69 138h75l45 -85z" />
    <glyph glyph-name="tcaron" unicode="&#x165;" horiz-adv-x="306" 
d="M243 74l-17 -74q-34 -6 -57 -7t-54 3t-47.5 24t-16.5 55q0 12 9 60l66 311h-89l15 72h89l29 140l93 30l-36 -170h95l-15 -72h-95l-62 -295q-8 -40 -8 -50q0 -48 101 -27zM412 762l-18 -85q-14 -74 -85 -102l-8 33q43 20 49 63h-36l19 91h79z" />
    <glyph glyph-name="Umacron" unicode="&#x16a;" horiz-adv-x="722" 
d="M91 309l85 406h96l-93 -442q-8 -38 -8 -71q0 -65 44.5 -101t122.5 -36q130 0 180 102q22 46 41 137l87 411h95l-88 -424q-20 -100 -48 -154q-77 -152 -280 -152q-118 0 -184.5 60.5t-63.5 152.5q2 51 14 111zM598 797h-258l15 68h258z" />
    <glyph glyph-name="umacron" unicode="&#x16b;" 
d="M348 0l19 86h-2q-80 -98 -188 -98q-66 0 -102 33.5t-36 92.5q0 37 15 106l63 298h87l-68 -317q-10 -46 -10 -72q0 -33 21.5 -50t58.5 -17q64 0 117.5 50t67.5 117l61 289h87l-109 -518h-82zM474 608h-258l15 68h258z" />
    <glyph glyph-name="Uring" unicode="&#x16e;" horiz-adv-x="722" 
d="M91 309l85 406h96l-93 -442q-8 -38 -8 -71q0 -65 44.5 -101t122.5 -36q130 0 180 102q22 46 41 137l87 411h95l-88 -424q-20 -100 -48 -154q-77 -152 -280 -152q-118 0 -184.5 60.5t-63.5 152.5q2 51 14 111zM383 814q0 43 31.5 73.5t75.5 30.5q33 0 54 -21.5t21 -53.5
q0 -43 -31.5 -72.5t-74.5 -29.5q-34 0 -55 20.5t-21 52.5zM483 875q-22 0 -39 -16t-17 -38q0 -37 39 -37q22 0 38 16t16 39q0 36 -37 36z" />
    <glyph glyph-name="uring" unicode="&#x16f;" 
d="M348 0l19 86h-2q-80 -98 -188 -98q-66 0 -102 33.5t-36 92.5q0 37 15 106l63 298h87l-68 -317q-10 -46 -10 -72q0 -33 21.5 -50t58.5 -17q64 0 117.5 50t67.5 117l61 289h87l-109 -518h-82zM258 628q0 43 31.5 73.5t75.5 30.5q33 0 54 -21.5t21 -53.5q0 -43 -31.5 -72.5
t-74.5 -29.5q-34 0 -55 20.5t-21 52.5zM358 689q-22 0 -39 -16t-17 -38q0 -37 39 -37q22 0 38 16t16 39q0 36 -37 36z" />
    <glyph glyph-name="Uhungarumlaut" unicode="&#x170;" horiz-adv-x="722" 
d="M91 309l85 406h96l-93 -442q-8 -38 -8 -71q0 -65 44.5 -101t122.5 -36q130 0 180 102q22 46 41 137l87 411h95l-88 -424q-20 -100 -48 -154q-77 -152 -280 -152q-118 0 -184.5 60.5t-63.5 152.5q2 51 14 111zM407 777h-71l92 138h113zM571 777h-70l91 138h114z" />
    <glyph glyph-name="uhungarumlaut" unicode="&#x171;" 
d="M348 0l19 86h-2q-80 -98 -188 -98q-66 0 -102 33.5t-36 92.5q0 37 15 106l63 298h87l-68 -317q-10 -46 -10 -72q0 -33 21.5 -50t58.5 -17q64 0 117.5 50t67.5 117l61 289h87l-109 -518h-82zM281 577h-71l92 138h113zM425 577h-70l91 138h114z" />
    <glyph glyph-name="Uogonek" unicode="&#x172;" horiz-adv-x="722" 
d="M266 -120q0 60 56 105q-116 1 -182 61t-63 152q2 51 14 111l85 406h96l-93 -442q-8 -38 -8 -71q0 -65 44.5 -101t122.5 -36q130 0 180 102q22 46 41 137l87 411h95l-88 -424q-20 -100 -48 -154q-52 -105 -165 -137q-34 -12 -64.5 -40.5t-30.5 -57.5q0 -32 40 -32l33 4
l-5 -63q-25 -6 -58 -6q-39 0 -64 21t-25 54z" />
    <glyph glyph-name="uogonek" unicode="&#x173;" 
d="M256 -120q0 78 94 132l17 74h-2q-80 -98 -188 -98q-66 0 -102 33.5t-36 92.5q0 37 15 106l63 298h87l-68 -317q-10 -46 -10 -72q0 -33 21.5 -50t58.5 -17q64 0 117.5 50t67.5 117l61 289h87l-109 -518q-34 -12 -64.5 -40.5t-30.5 -57.5q0 -32 40 -32l33 4l-5 -63
q-26 -6 -58 -6q-39 0 -64 21t-25 54z" />
    <glyph glyph-name="Ydieresis" unicode="&#x178;" horiz-adv-x="639" 
d="M376 786h-90l21 102h91zM547 786h-90l21 102h91zM620 715h113l-344 -437l-59 -278h-94l59 282l-204 433h102l133 -293l25 -58l44 58z" />
    <glyph glyph-name="Zacute" unicode="&#x179;" horiz-adv-x="611" 
d="M542 0h-549l13 75l508 562l-77 -2h-321l18 80h508l-13 -78l-509 -558l71 2h368zM413 777h-70l90 139h116z" />
    <glyph glyph-name="zacute" unicode="&#x17a;" horiz-adv-x="472" 
d="M411 0h-418l13 66l353 378l-62 -1h-220l15 75h397l-12 -59l-359 -384l61 1h247zM311 577h-71l92 139h115z" />
    <glyph glyph-name="Zdotaccent" unicode="&#x17b;" horiz-adv-x="611" 
d="M542 0h-549l13 75l508 562l-77 -2h-321l18 80h508l-13 -78l-509 -558l71 2h368zM445 786h-99l22 107h99z" />
    <glyph glyph-name="zdotaccent" unicode="&#x17c;" horiz-adv-x="472" 
d="M411 0h-418l13 66l353 378l-62 -1h-220l15 75h397l-12 -59l-359 -384l61 1h247zM346 593h-99l22 107h99z" />
    <glyph glyph-name="Zcaron" unicode="&#x17d;" horiz-adv-x="611" 
d="M542 0h-549l13 75l508 562l-77 -2h-321l18 80h508l-13 -78l-509 -558l71 2h368zM493 915h85l-132 -138h-92l-69 138h75l45 -85z" />
    <glyph glyph-name="zcaron" unicode="&#x17e;" horiz-adv-x="472" 
d="M411 0h-418l13 66l353 378l-62 -1h-220l15 75h397l-12 -59l-359 -384l61 1h247zM397 715h86l-132 -138h-92l-69 138h76l44 -86z" />
    <glyph glyph-name="florin" unicode="&#x192;" 
d="M521 708l-19 -74q-40 8 -59 8q-30 0 -45.5 -13t-23.5 -44q-5 -15 -26 -101h105l-15 -69h-105l-106 -473q-16 -71 -54 -100t-106 -29q-29 0 -66 8l20 75q27 -7 51 -7q30 0 45.5 14.5t23.5 47.5l104 464h-97l15 69h96q34 136 40 154q28 83 133 83q52 0 89 -13z" />
    <glyph glyph-name="Scommaaccent" unicode="&#x218;" horiz-adv-x="658" 
d="M322 65q94 0 137 39t43 91q0 75 -91 108q-98 36 -162 64q-122 52 -122 166q0 89 73 142.5t178 53.5q216 0 259 -172q5 -20 5 -47l-93 -6q1 72 -42.5 108.5t-126.5 36.5q-64 0 -112.5 -28t-48.5 -84q0 -71 90 -103q27 -11 85 -32.5t71 -26.5q133 -51 133 -176
q0 -96 -81.5 -154.5t-195.5 -58.5q-128 0 -203 57.5t-76 179.5l95 13v-9q0 -11 5 -43q9 -56 55 -87.5t125 -31.5zM354 -61l-18 -85q-15 -76 -94 -93l-10 34q50 12 55 54h-45l19 90h93z" />
    <glyph glyph-name="scommaaccent" unicode="&#x219;" horiz-adv-x="491" 
d="M270 459q-50 0 -76.5 -20t-26.5 -47q0 -22 15 -36.5t43 -28.5q23 -11 121 -55q92 -41 92 -125q0 -72 -60 -115.5t-151 -43.5q-96 0 -154.5 44t-56.5 137l88 5q-6 -57 29.5 -85.5t97.5 -28.5q53 0 86 20.5t33 57.5q0 40 -45 62q-16 8 -37.5 18t-47.5 22t-38 18
q-47 22 -73 50.5t-26 71.5q0 70 56.5 109.5t132.5 39.5q88 0 143 -42t55 -122l-85 -3q0 46 -30 71.5t-85 25.5zM256 -61l-18 -85q-15 -76 -94 -93l-10 34q50 12 55 54h-45l19 90h93z" />
    <glyph glyph-name="Tcommaaccent" unicode="&#x21a;" horiz-adv-x="593" 
d="M292 0h-95l133 634h-237l17 81h569l-17 -81h-237zM281 -61l-18 -85q-15 -76 -94 -93l-10 34q50 12 55 54h-45l19 90h93z" />
    <glyph glyph-name="tcommaaccent" unicode="&#x21b;" horiz-adv-x="296" 
d="M243 74l-17 -74q-34 -6 -57 -7t-54 3t-47.5 24t-16.5 55q0 12 9 60l66 311h-89l15 72h89l29 140l93 30l-36 -170h95l-15 -72h-95l-62 -295q-8 -40 -8 -50q0 -48 101 -27zM159 -61l-18 -85q-15 -76 -94 -93l-10 34q50 12 55 54h-45l19 90h93z" />
    <glyph glyph-name="circumflex" unicode="&#x2c6;" horiz-adv-x="452" 
d="M243 577h-85l132 138h92l69 -138h-76l-46 87z" />
    <glyph glyph-name="caron" unicode="&#x2c7;" horiz-adv-x="481" 
d="M395 715h86l-132 -138h-92l-69 138h76l44 -86z" />
    <glyph glyph-name="breve" unicode="&#x2d8;" horiz-adv-x="278" 
d="M208 577q-63 0 -96.5 34t-31.5 98h61q-1 -38 17 -56t58 -18q77 0 97 74h69q-17 -65 -62 -98.5t-112 -33.5z" />
    <glyph glyph-name="dotaccent" unicode="&#x2d9;" horiz-adv-x="278" 
d="M265 593h-99l22 107h99z" />
    <glyph glyph-name="ring" unicode="&#x2da;" horiz-adv-x="457" 
d="M276 628q0 43 31.5 73.5t75.5 30.5q33 0 54 -21.5t21 -53.5q0 -43 -31.5 -72.5t-74.5 -29.5q-34 0 -55 20.5t-21 52.5zM376 689q-22 0 -39 -16t-17 -38q0 -37 39 -37q22 0 38 16t16 39q0 36 -37 36z" />
    <glyph glyph-name="ogonek" unicode="&#x2db;" horiz-adv-x="278" 
d="M58 -120q0 95 140 154l34 -34q-34 -12 -64.5 -40.5t-30.5 -57.5q0 -32 40 -32l33 4l-5 -63q-25 -6 -58 -6q-39 0 -64 21t-25 54z" />
    <glyph glyph-name="tilde" unicode="&#x2dc;" horiz-adv-x="278" 
d="M113 584h-56q29 109 99 109q23 0 74.5 -22t61.5 -22q31 0 46 40h55q-10 -48 -35 -78t-64 -30q-25 0 -75.5 22t-61.5 22q-33 0 -44 -41z" />
    <glyph glyph-name="hungarumlaut" unicode="&#x2dd;" horiz-adv-x="278" 
d="M131 577h-71l92 138h113zM275 577h-70l91 138h114z" />
    <glyph glyph-name="Delta" unicode="&#x394;" horiz-adv-x="750" 
d="M239 227l-54 -147h379l-54 147l-91 257l-43 130h-3l-44 -130zM680 0h-610l260 715h91z" />
    <glyph glyph-name="Delta" unicode="&#x2206;" horiz-adv-x="750" 
d="M239 227l-54 -147h379l-54 147l-91 257l-43 130h-3l-44 -130zM680 0h-610l260 715h91z" />
    <glyph glyph-name="Omega" unicode="&#x3a9;" horiz-adv-x="698" 
d="M349 651q-85 0 -134.5 -62t-49.5 -179q0 -86 44 -158.5t112 -87.5l-1 -164h-185l-13 79h121v40q-64 30 -113.5 111t-49.5 180q0 141 73.5 228.5t195.5 87.5t195.5 -87.5t73.5 -228.5q0 -99 -49.5 -180t-113.5 -111v-40h121l-13 -79h-185l-1 164q68 15 112 87.5t44 158.5
q0 117 -49.5 179t-134.5 62z" />
    <glyph glyph-name="Omega" unicode="&#x2126;" horiz-adv-x="698" 
d="M349 651q-85 0 -134.5 -62t-49.5 -179q0 -86 44 -158.5t112 -87.5l-1 -164h-185l-13 79h121v40q-64 30 -113.5 111t-49.5 180q0 141 73.5 228.5t195.5 87.5t195.5 -87.5t73.5 -228.5q0 -99 -49.5 -180t-113.5 -111v-40h121l-13 -79h-185l-1 164q68 15 112 87.5t44 158.5
q0 117 -49.5 179t-134.5 62z" />
    <glyph glyph-name="pi" unicode="&#x3c0;" horiz-adv-x="734" 
d="M80 438v80h574v-80h-88v-438h-87v438h-221v-438h-87v438h-91z" />
    <glyph glyph-name="endash" unicode="&#x2013;" horiz-adv-x="528" 
d="M516 231h-528l8 75h528z" />
    <glyph glyph-name="emdash" unicode="&#x2014;" horiz-adv-x="1000" 
d="M989 231h-1000l8 75h1000z" />
    <glyph glyph-name="quoteleft" unicode="&#x2018;" horiz-adv-x="250" 
d="M226 470h-106l16 79q16 80 48.5 123.5t94.5 49.5l-9 -44q-32 -6 -49.5 -32t-27.5 -70h55z" />
    <glyph glyph-name="quoteright" unicode="&#x2019;" horiz-adv-x="250" 
d="M169 715h106l-16 -79q-16 -80 -48.5 -123.5t-94.5 -49.5l9 44q32 6 49.5 32t27.5 70h-55z" />
    <glyph glyph-name="quotesinglbase" unicode="&#x201a;" horiz-adv-x="250" 
d="M-20 -146l9 44q32 6 49 31.5t28 70.5h-56l23 105h106l-18 -86q-16 -76 -48.5 -117.5t-92.5 -47.5z" />
    <glyph glyph-name="quotedblleft" unicode="&#x201c;" horiz-adv-x="379" 
d="M203 470h-106l16 79q16 80 48.5 123.5t94.5 49.5l-9 -44q-32 -6 -49.5 -32t-27.5 -70h55zM372 470h-106l16 79q16 80 48.5 123.5t94.5 49.5l-9 -44q-32 -6 -49.5 -32t-27.5 -70h55z" />
    <glyph glyph-name="quotedblright" unicode="&#x201d;" horiz-adv-x="379" 
d="M319 715h106l-16 -79q-16 -80 -48.5 -123.5t-94.5 -49.5l9 44q32 6 49.5 32t27.5 70h-55zM150 715h106l-16 -79q-16 -80 -48.5 -123.5t-94.5 -49.5l9 44q32 6 49.5 32t27.5 70h-55z" />
    <glyph glyph-name="quotedblbase" unicode="&#x201e;" horiz-adv-x="379" 
d="M195 106h106l-16 -79q-16 -80 -48.5 -123.5t-94.5 -49.5l9 44q32 6 49.5 32t27.5 70h-55zM26 106h106l-16 -79q-16 -80 -48.5 -123.5t-94.5 -49.5l9 44q32 6 49.5 32t27.5 70h-55z" />
    <glyph glyph-name="dagger" unicode="&#x2020;" 
d="M232 -163h-87l125 596h-193l16 74h193l43 203h86l-42 -203h192l-16 -74h-192z" />
    <glyph glyph-name="daggerdbl" unicode="&#x2021;" 
d="M232 -164h-86l40 190h-194l16 75h193l72 342h-193l16 76h193l40 190h87l-40 -190h191l-16 -76h-192l-71 -342h192l-16 -75h-192z" />
    <glyph glyph-name="bullet" unicode="&#x2022;" horiz-adv-x="425" 
d="M212 504q62 0 106.5 -44.5t44.5 -106.5t-44.5 -106.5t-106.5 -44.5t-106.5 44.5t-44.5 106.5t44.5 106.5t106.5 44.5z" />
    <glyph glyph-name="ellipsis" unicode="&#x2026;" horiz-adv-x="1000" 
d="M197 0h-105l22 105h106zM531 0h-106l23 105h105zM864 0h-105l22 105h106z" />
    <glyph glyph-name="perthousand" unicode="&#x2030;" horiz-adv-x="1037" 
d="M57 494q0 87 47 155.5t128 68.5q59 0 90 -35t31 -96q0 -87 -47 -159t-126 -72q-123 0 -123 138zM182 413q45 0 73 54.5t28 118.5q0 35 -14 55t-41 20q-46 0 -74 -56t-28 -112q0 -80 56 -80zM169 -27h-68l450 753h69zM371 120q0 87 47 155.5t128 68.5q59 0 90 -35t31 -96
q0 -87 -47 -159t-126 -72q-123 0 -123 138zM496 39q45 0 73 54.5t28 118.5q0 35 -14 55t-41 20q-46 0 -74 -56t-28 -112q0 -80 56 -80zM713 120q0 87 47 155.5t128 68.5q59 0 90 -35t31 -96q0 -87 -47 -159t-126 -72q-123 0 -123 138zM838 39q45 0 73 54.5t28 118.5
q0 35 -14 55t-41 20q-46 0 -74 -56t-28 -112q0 -80 56 -80z" />
    <glyph glyph-name="guilsinglleft" unicode="&#x2039;" horiz-adv-x="296" 
d="M154 74l-113 185l17 57l179 144l24 -42l-146 -146l82 -155z" />
    <glyph glyph-name="guilsinglright" unicode="&#x203a;" horiz-adv-x="296" 
d="M251 274l-17 -55l-181 -145l-24 45l146 144l-76 157l40 40z" />
    <glyph glyph-name="fraction" unicode="&#x2044;" horiz-adv-x="390" 
d="M-72 -28l515 758h71l-516 -758h-70z" />
    <glyph glyph-name="Euro" unicode="&#x20ac;" horiz-adv-x="722" 
d="M400 252h-214q4 -93 49.5 -140t127.5 -47q71 0 122 47t74 134l93 -6q-30 -121 -109 -187.5t-187 -66.5q-116 0 -184 69t-78 197h-71l14 63h56q2 48 10 87h-52l14 63h54q38 118 122.5 191t199.5 73q105 0 171 -62.5t71 -173.5l-88 -4q-7 80 -47.5 120.5t-108.5 40.5
q-83 0 -140 -50.5t-87 -134.5h230l-13 -63h-235q-8 -41 -10 -87h230z" />
    <glyph glyph-name="trademark" unicode="&#x2122;" horiz-adv-x="995" 
d="M426 715v-57h-130v-348h-67v348h-129v57h326zM911 715v-405h-64v339h-1l-119 -339h-51l-121 341h-1v-341h-65v405h102l112 -316l109 316h99z" />
    <glyph glyph-name="partialdiff" unicode="&#x2202;" horiz-adv-x="629" 
d="M443 234q0 67 -43.5 109.5t-109.5 42.5q-65 0 -104 -47t-39 -118q0 -69 41 -113t104 -44q69 0 110 53.5t41 116.5zM480 343q6 81 -12.5 151t-67 117.5t-120.5 47.5q-52 0 -82 -30.5t-36 -71.5l-85 16q16 75 70 117t135 42q71 0 126 -31.5t87 -84.5t48 -116.5t16 -133.5
q0 -96 -27.5 -179.5t-90.5 -141t-151 -57.5q-102 0 -166 68.5t-64 165.5q0 99 65.5 171t162.5 72q66 0 116 -34t76 -88z" />
    <glyph glyph-name="product" unicode="&#x220f;" horiz-adv-x="737" 
d="M637 795v-946h-89v866h-359v-866h-89v946h537z" />
    <glyph glyph-name="summation" unicode="&#x2211;" horiz-adv-x="680" 
d="M40 -70l376 392l-376 392v81h600v-80h-492l77 -73l263 -273v-93l-263 -274l-77 -73h492v-80h-600v81z" />
    <glyph glyph-name="minus" unicode="&#x2212;" horiz-adv-x="361" 
d="M316 226h-280l18 84h279z" />
    <glyph glyph-name="radical" unicode="&#x221a;" horiz-adv-x="842" 
d="M812 795l-375 -945h-106l-141 435l-97 -145l-63 46l144 213l76 -35l98 -296l39 -130h2l46 130l287 727h90z" />
    <glyph glyph-name="infinity" unicode="&#x221e;" horiz-adv-x="772" 
d="M386 239q-27 -47 -74 -76t-96 -29q-76 0 -123.5 46.5t-47.5 122.5t47.5 122.5t123.5 46.5q49 0 96 -29t74 -76q27 47 74 76t96 29q75 0 123 -46.5t48 -122.5t-48 -122.5t-123 -46.5q-49 0 -96 29t-74 76zM336 303q-18 45 -48.5 70.5t-68.5 25.5q-47 0 -73.5 -25.5
t-26.5 -70.5t26.5 -70.5t73.5 -25.5q38 0 68.5 25.5t48.5 70.5zM436 303q18 -45 48.5 -70.5t68.5 -25.5q46 0 72.5 25.5t26.5 70.5t-26.5 70.5t-72.5 25.5q-38 0 -68.5 -25.5t-48.5 -70.5z" />
    <glyph glyph-name="integral" unicode="&#x222b;" horiz-adv-x="578" 
d="M100 -120l8 78q27 -8 65 -8q72 0 72 69v650q0 60 40 93t108 33q51 0 85 -9l-8 -78q-27 8 -65 8q-71 0 -71 -69v-650q0 -60 -40 -93t-109 -33q-51 0 -85 9z" />
    <glyph glyph-name="approxequal" unicode="&#x2248;" horiz-adv-x="591" 
d="M186 482q40 0 132 -38q8 -3 22.5 -9.5t21 -9t17 -6t18 -5t14.5 -1.5q51 0 107 71l18 -76q-30 -35 -59.5 -53t-70.5 -18q-15 0 -29 2t-28 7t-22.5 8.5t-23 10t-18.5 8.5q-74 32 -106 32q-30 0 -52.5 -17t-53.5 -54l-18 75q52 73 131 73zM186 272q40 0 132 -38
q8 -3 22.5 -9.5t21 -9t17 -6t18 -5t14.5 -1.5q51 0 107 71l18 -76q-30 -35 -59.5 -53t-70.5 -18q-15 0 -29 2t-28 7t-22.5 8.5t-23 10t-18.5 8.5q-74 32 -106 32q-30 0 -52.5 -17t-53.5 -54l-18 75q52 73 131 73z" />
    <glyph glyph-name="notequal" unicode="&#x2260;" horiz-adv-x="592" 
d="M540 161h-330l-121 -189h-70l121 189h-88v75h136l86 135h-222v75h270l183 284h71l-183 -284h147v-75h-195l-87 -135h282v-75z" />
    <glyph glyph-name="lessequal" unicode="&#x2264;" horiz-adv-x="592" 
d="M51 268v72l490 215v-78l-400 -173l400 -175v-129h-490v73l437 -1z" />
    <glyph glyph-name="greaterequal" unicode="&#x2265;" horiz-adv-x="592" 
d="M541 340v-72l-437 -196l437 1v-73h-490v129l400 175l-400 173v78z" />
    <glyph glyph-name="lozenge" unicode="&#x25ca;" horiz-adv-x="638" 
d="M318 635l-62 -112l-95 -167l98 -168l60 -108l60 108l98 168l-96 167zM70 356l207 359h83l208 -359l-208 -356h-83z" />
    <glyph glyph-name="caron.alt" horiz-adv-x="278" 
d="M197 722l-18 -85q-14 -74 -85 -102l-8 33q43 20 49 63h-36l19 91h79z" />
    <glyph glyph-name="commaaccent" horiz-adv-x="230" 
d="M179 -61l-18 -85q-15 -76 -94 -93l-10 34q50 12 55 54h-45l19 90h93z" />
    <glyph glyph-name="macron.cap" horiz-adv-x="462" 
d="M352 797h-258l15 68h258z" />
    <glyph glyph-name="breve.cap" horiz-adv-x="278" 
d="M208 777q-62 0 -96 34t-33 98h61q-1 -37 17.5 -55.5t57.5 -18.5q77 0 97 74h69q-35 -132 -173 -132z" />
    <glyph glyph-name="acute.cap" horiz-adv-x="667" 
d="M445 777h-70l90 139h116z" />
    <glyph glyph-name="caron.cap" horiz-adv-x="658" 
d="M501 915h85l-132 -138h-92l-69 138h75l45 -85z" />
    <glyph glyph-name="ring.cap" horiz-adv-x="457" 
d="M276 814q0 43 31.5 73.5t75.5 30.5q33 0 54 -21.5t21 -53.5q0 -43 -31.5 -72.5t-74.5 -29.5q-34 0 -55 20.5t-21 52.5zM376 875q-22 0 -39 -16t-17 -38q0 -37 39 -37q22 0 38 16t16 39q0 36 -37 36z" />
    <glyph glyph-name="dotaccent.cap" horiz-adv-x="278" 
d="M265 786h-99l22 107h99z" />
    <glyph glyph-name="hungarumlaut.cap" horiz-adv-x="278" 
d="M121 777h-71l92 138h113zM285 777h-70l91 138h114z" />
    <glyph glyph-name="tilde.cap" horiz-adv-x="278" 
d="M113 775h-56q29 109 99 109q23 0 74.5 -22t61.5 -22q31 0 46 40h55q-10 -48 -35 -78t-64 -30q-25 0 -75.5 22t-61.5 22q-33 0 -44 -41z" />
    <glyph glyph-name="circumflex.cap" horiz-adv-x="667" 
d="M377 777h-85l132 138h92l69 -138h-76l-46 87z" />
    <glyph glyph-name="grave.cap" horiz-adv-x="667" 
d="M488 777h-65l-100 139h108z" />
    <glyph glyph-name="dieresis.cap" horiz-adv-x="434" 
d="M240 786h-90l21 102h91zM411 786h-90l21 102h91z" />
    <glyph glyph-name="commaaccent.alt" horiz-adv-x="220" 
d="M171 -61l-18 -85q-15 -76 -94 -93l-10 34q50 12 55 54h-45l19 90h93z" />
    </font>
</defs>
</svg>
